<?xml version="1.0" encoding="UTF-8"?>
<svg width="64.143" height="37.417" id="Layer_1" xmlns="http://www.w3.org/2000/svg" version="1.1" viewBox="0 0 33.6 19.6">
  <defs><clipPath id="flag-bounds-clip"><rect x="0" y="0" width="33.6" height="19.6"/></clipPath></defs>
  <g clip-path="url(#flag-bounds-clip)">
  <!-- Generator: Adobe Illustrator 30.2.1, SVG Export Plug-In . SVG Version: 2.1.1 Build 1)  -->
  <path d="M4.4,1.1h24.8v17.4H4.4V1.1Z" fill="#6499cd"/>
  <path d="M8.7,5.1c-2.1,0-4.3-.4-4.3-.4,0,0,3.6,2.1,7.1,2.1s9.8-2.3,14.2-2.3c2.6,0,3.5.4,3.5.4,0,0-4.3-2.4-6.7-2.4-2.4.1-11.8,2.6-13.8,2.6Z" fill="#fff"/>
  <path d="M25.7,7.7c2.6,0,3.5.4,3.5.4,0,0-4.3-2.4-6.7-2.4s-11.7,2.5-13.8,2.5-4.3-.4-4.3-.4c0,0,3.4,2,6.9,2.1l1.1,1.6c-1.6.3-3,.6-3.7.6-2.1,0-4.3-.4-4.3-.4,0,0,3.6,2.1,7.1,2.1s9.8-2.3,14.2-2.3c2.6,0,3.5.4,3.5.4,0,0-4.3-2.4-6.7-2.4h-.1l-1-1.4c1.5-.2,3-.4,4.3-.4ZM19.7,10c-1.4.3-3.1.6-4.8,1l-.9-1.3c1.5-.2,3.1-.6,4.8-1,0,0,.9,1.3.9,1.3Z" fill="#fff"/>
  <path d="M8.7,15.3c-2.1,0-4.3-.4-4.3-.4,0,0,3.6,2.1,7.1,2.1s9.8-2.3,14.2-2.3c2.6,0,3.5.4,3.5.4,0,0-4.3-2.4-6.7-2.4-2.4.1-11.8,2.6-13.8,2.6Z" fill="#fff"/>
  </g>
</svg>
