<?xml version="1.0" encoding="UTF-8"?>
<svg width="60" height="40" id="Layer_1" xmlns="http://www.w3.org/2000/svg" version="1.1" viewBox="0 0 450 300">
  <defs><clipPath id="flag-bounds-clip"><rect x="0" y="0" width="450" height="300"/></clipPath></defs>
  <g clip-path="url(#flag-bounds-clip)">
  <!-- Generator: Adobe Illustrator 30.2.1, SVG Export Plug-In . SVG Version: 2.1.1 Build 1)  -->
  <path d="M0,0h450v300H0V0Z" fill="#009543"/>
  <path d="M0,0h450v210H0V0Z" fill="#fff"/>
  <path d="M0,0h450v90H0V0Z" fill="#00209f"/>
  <g>
    <g>
      <path d="M224.76,95.569c-1.71.037-3.378,1.93-3.378,1.93l.147,20.234-6.388,6.692h5.172l-.044,11.603-30.591,41.193-4.522-1.563-7.904,16.86s19.55,12.243,47.925,11.908c31.144-.37,48.064-12.471,48.064-12.471l-8.168-16.644-4,1.74-30.983-40.98-.043-11.949h5.17l-7.037-6.609.041-20.159s-1.751-1.82-3.46-1.783v-.002Z"/>
      <path d="M224.048,204.933c-27.593,0-46.868-11.87-47.062-11.991l-.375-.235,8.283-17.667,4.601,1.59,30.275-40.767.042-10.937h-5.838l7.055-7.391-.147-20.223.126-.143c.074-.084,1.835-2.058,3.742-2.1l.316-.007.01.02c1.786.158,3.433,1.849,3.506,1.925l.14.146-.041,20.145,7.8,7.325h-5.931l.04,11.28,30.646,40.533,4.077-1.774,8.565,17.454-.345.246c-.171.122-17.406,12.196-48.35,12.564-.378.005-.759.007-1.134.007ZM177.897,192.32c2.856,1.664,21.477,11.937,47.274,11.605,28.2-.335,44.854-10.459,47.43-12.143l-7.766-15.823-3.923,1.706-31.321-41.427-.046-12.617h4.409l-6.274-5.893.041-20.164c-.419-.392-1.705-1.495-2.908-1.495-.014,0-.027,0-.042,0l-.088.002c-1.195.079-2.413,1.226-2.8,1.623l.147,20.236-5.721,5.993h4.505l-.046,12.269-30.908,41.619-4.443-1.535-7.521,16.043Z"/>
    </g>
    <path d="M236.993,146.511h-24.297s-.678-1.43-.678-1.43c-.326-.687-7.967-16.953-6.66-28.83,1.316-11.959,8.439-19.169,19.056-19.286.119,0,.237-.002.355-.002,11.363,0,17.761,6.136,19.553,18.749,1.711,12.043-6.303,28.69-6.645,29.393l-.685,1.406ZM215.899,141.51h17.926c1.815-4.11,6.784-16.384,5.546-25.094-1.473-10.364-5.773-14.553-14.901-14.45-8.076.089-13.098,5.356-14.141,14.833-.946,8.599,3.807,20.618,5.57,24.711Z"/>
    <path d="M187.79,182.57c-.346.461-2.882,5.533-2.882,5.533l4.38-.923-1.498-4.61ZM190.32,189.14l-4.61,1.498,5.532,2.19-.922-3.688ZM192.4,182.68l2.305,6.8,5.648-1.613-1.498-3.227-6.455-1.96h0ZM195.97,191.91l.807,2.766,7.492,1.845-2.997-6.34-5.302,1.729h0ZM204.27,186.14l2.651,6.34,5.648-2.19-1.844-2.767-6.455-1.383ZM207.96,194.79l.922,2.42,8.76,1.268-3.688-5.763-5.994,2.075h0ZM216.37,187.99l3.227,5.648,8.184-2.997-.922-2.19-10.489-.461h0ZM221.1,195.71l1.729,2.997,10.143-.346-3.804-5.648-8.068,2.997h0ZM231.82,188.22l2.766,4.726,6.455-3.112-1.729-2.536-7.492.922ZM242.42,191.79l-6.455,3.227,1.73,2.767,8.644-1.384-3.919-4.61h0ZM244.5,186.83l3.343,4.15,5.417-4.265-1.844-1.96-6.916,2.075h0ZM254.41,189.02l-5.187,3.919,1.383,2.42,7.147-1.844-3.343-4.495h0ZM261.56,180.84l1.268,1.844-3.573,5.302-3.689-4.725,5.994-2.421h0ZM263.98,185.45l2.19,4.38-4.38,1.498-.346-2.074,2.536-3.804Z" fill="#fff"/>
  </g>
  </g>
</svg>
