<?xml version="1.0" encoding="UTF-8"?>
<svg width="69.282" height="34.641" id="Layer_1" xmlns="http://www.w3.org/2000/svg" xmlns:xlink="http://www.w3.org/1999/xlink" version="1.1" viewBox="0 0 1200 600">
  <defs><clipPath id="flag-bounds-clip"><rect x="0" y="0" width="1200" height="600"/></clipPath></defs>
  <g clip-path="url(#flag-bounds-clip)">
  <!-- Generator: Adobe Illustrator 30.2.1, SVG Export Plug-In . SVG Version: 2.1.1 Build 1)  -->
  <defs>
    <clipPath id="clippath">
      <path d="M0,0v150h700v150h-100L0,0ZM600,0h-300v350H0v-50L600,0Z" fill="none"/>
    </clipPath>
  </defs>
  <path d="M0,0h1200v600H0V0Z" fill="#00247d"/>
  <g>
    <path d="M0,0l600,300M600,0L0,300"/>
    <polygon points="586.583 326.833 300 183.541 13.417 326.833 -13.417 273.167 232.918 150 -13.417 26.833 13.417 -26.833 300 116.459 586.583 -26.833 613.416 26.833 367.082 150 613.416 273.167 586.583 326.833" fill="#fff"/>
  </g>
  <g clip-path="url(#clippath)">
    <g>
      <path d="M0,0l600,300M600,0L0,300"/>
      <polygon points="591.056 317.889 300 172.361 8.944 317.889 -8.944 282.111 255.279 150 -8.944 17.889 8.944 -17.889 300 127.639 591.056 -17.889 608.944 17.889 344.721 150 608.944 282.111 591.056 317.889" fill="#cf142b"/>
    </g>
  </g>
  <g>
    <path d="M300,0v350M0,150h700"/>
    <polygon points="350 350 250 350 250 200 0 200 0 100 250 100 250 0 350 0 350 100 700 100 700 200 350 200 350 350" fill="#fff"/>
  </g>
  <g>
    <path d="M300,0v350M0,150h700"/>
    <polygon points="330 350 270 350 270 180 0 180 0 120 270 120 270 0 330 0 330 120 700 120 700 180 330 180 330 350" fill="#cf142b"/>
  </g>
  <path d="M0,300h600V0h600v600H0v-300Z" fill="#00247d"/>
  <path d="M1008.94,170.989v85.175c0,69.927-27.467,133.94-108.953,172.848-81.488-38.91-108.956-102.921-108.956-172.85v-85.174h217.909Z" fill="#fff"/>
  <path d="M1001.61,179.669v79.444c0,65.223-25.62,124.928-101.623,161.218-76.004-36.29-101.623-95.996-101.623-161.219v-79.444h203.246Z" fill="#fdc300"/>
  <g>
    <g>
      <path d="M852.667,214.487c-1.47-1.103-3.066-1.778-5.27-1.839.487-5.394-3.434-7.724-6.254-8.704-2.817-.981-3.8-2.085-4.288-4.292-.491-2.206-1.962-3.555-4.537-4.29-2.575-.736-4.783-3.31-5.762-4.537-.979-1.226-1.35-.98-2.083,1.104-.738,2.084-3.679,6.007-.983,6.13-1.959,1.593-3.063,3.433-1.838,5.885-1.35,1.103-2.329,2.697-.491,3.31,1.841.613,2.329,1.103,2.454,1.594-1.654,0-2.084,3.31,1.837,4.045-.858.123-1.225,2.82.37,2.82-2.207,0-4.049,3.31-6.865,3.31s-4.292.613-4.413,1.84c-.125,1.225-1.595,2.696-2.329,3.31,2.084.244,3.43,0,4.533-.859,1.105-.858,2.942-1.103,4.171-.122,1.225.98,3.8,1.47,5.025,1.225-2.696,1.84-4.658,4.292-4.904,6.62-.246,2.33-1.838,5.027-3.68,5.763-1.837.736-4.286,2.697-5.145,5.027,2.33,5.762,5.633,7.185,8.946,8.704,5.887,2.698,9.562,4.659,12.016,7.356,2.45,2.697,3.433.736,7.107,5.394,3.68,4.66,7.112,13.486,10.787,14.958,3.68,1.47,8.337.49,11.033-4.169,2.7-4.659,4.416-51.736-9.437-59.583h0Z" fill="#ff9e3d"/>
      <path d="M854.324,278.994c-1.155,0-2.282-.227-3.301-.634-2.353-.942-4.526-4.704-6.829-8.687-1.303-2.255-2.651-4.587-4.012-6.311-2.098-2.659-3.276-3.126-4.415-3.578-.838-.332-1.63-.646-2.688-1.81-2.411-2.65-6.067-4.619-11.973-7.325l-.186-.085c-3.206-1.468-6.521-2.986-8.827-8.688l-.02-.047.018-.047c.855-2.32,3.273-4.323,5.219-5.103,1.699-.679,3.347-3.269,3.6-5.656.226-2.136,1.912-4.509,4.542-6.42-1.37.067-3.536-.447-4.615-1.31-1.19-.949-2.974-.682-4.01.123-1.118.869-2.499,1.136-4.628.885l-.301-.035.232-.193c.793-.663,2.167-2.088,2.283-3.224.128-1.298,1.656-1.957,4.542-1.957,1.449,0,2.634-.905,3.779-1.779.822-.627,1.608-1.228,2.44-1.445-.337-.212-.545-.611-.584-1.152-.042-.584.143-1.253.484-1.572-2.062-.5-2.893-1.783-2.79-2.881.067-.725.529-1.25,1.15-1.334-.161-.358-.646-.795-2.317-1.353-.633-.211-.997-.551-1.081-1.009-.124-.677.417-1.592,1.451-2.459-.998-2.081-.462-3.918,1.683-5.755-.372-.069-.636-.232-.784-.488-.479-.824.325-2.406,1.104-3.936.346-.68.673-1.321.858-1.845.418-1.189.73-1.849,1.181-1.925.317-.056.641.174,1.126.783,1.966,2.463,3.883,3.974,5.697,4.493,2.66.76,4.131,2.154,4.627,4.387.496,2.242,1.518,3.262,4.204,4.198,5.632,1.957,6.577,5.783,6.352,8.701,1.988.079,3.598.653,5.201,1.855,3.547,2.013,6.34,6.7,8.303,13.93,2.7,9.949,3.067,21.787,3.046,27.958-.03,8.535-.816,16.05-1.871,17.87-2.009,3.473-5.038,4.858-7.892,4.858ZM812.354,241.825c2.266,5.567,5.38,6.994,8.676,8.503l.185.085c5.937,2.721,9.617,4.704,12.058,7.387,1.018,1.119,1.781,1.422,2.591,1.743,1.116.443,2.382.945,4.523,3.658,1.372,1.738,2.725,4.079,4.033,6.342,2.179,3.77,4.431,7.667,6.699,8.576,4.769,1.904,8.895-.695,10.872-4.114,2.017-3.479,3.231-29.299-1.201-45.629-1.945-7.166-4.699-11.8-8.188-13.776l-.014-.009c-1.597-1.199-3.199-1.758-5.196-1.813l-.138-.004.012-.138c.257-2.843-.604-6.637-6.167-8.57-2.756-.959-3.858-2.066-4.372-4.386-.474-2.13-1.886-3.462-4.445-4.193-1.867-.534-3.828-2.075-5.828-4.581-.408-.511-.683-.721-.879-.689-.339.058-.671.877-.979,1.755-.191.54-.521,1.189-.871,1.876-.713,1.399-1.52,2.985-1.111,3.687.143.245.431.374.883.394l.341.016-.265.215c-2.294,1.865-2.851,3.631-1.804,5.726l.047.093-.081.066c-.996.814-1.548,1.687-1.439,2.277.065.358.371.63.907.809,1.638.546,2.373,1.034,2.539,1.686l.041.162h-.167c-.569,0-1.009.457-1.069,1.11-.097,1.041.771,2.272,2.931,2.677l-.006.257c-.361.052-.668.783-.618,1.477.022.326.164,1.084.97,1.084v.26c-.992,0-1.933.718-2.928,1.478-1.18.901-2.4,1.833-3.938,1.833-2.729,0-4.171.58-4.284,1.723-.128,1.263-1.562,2.672-2.148,3.2,1.904.188,3.122-.068,4.144-.864,1.118-.869,3.043-1.15,4.332-.121,1.176.941,3.685,1.447,4.919,1.199l.099.235c-2.807,1.915-4.619,4.354-4.849,6.526-.266,2.514-1.952,5.147-3.761,5.87-1.879.753-4.209,2.676-5.054,4.905Z"/>
    </g>
    <g>
      <path d="M858.921,194.871c-3.433,3.678-7.85,7.356-7.112,13.976.737,6.62,1.47,17.41-4.658,21.087-6.129,3.678-9.07,12.996-1.717,18.39,7.354,5.395,7.6,12.015,8.825,18.145,1.229,6.13,4.416,11.034,9.32,6.866,4.9.735,7.6-1.226,7.6-5.15s.245-6.13,3.92-7.356c3.68-1.226,4.658-2.452,6.375-5.762,1.716-3.31,2.695-4.781,1.716-6.743-.979-1.961-1.35-6.007-.612-8.95.737-2.942-.98-4.536-1.963-6.374-.979-1.84-1.345-3.433-.858-5.885.492-2.452-.733-4.046-2.45-5.272-1.716-1.226-2.454-2.452-2.083-4.414.367-1.961-1.229-3.187-3.066-4.658-1.838-1.472-3.188-3.433-3.188-6.375s-5.637-9.809-10.049-11.525h0Z" fill="#ff927f"/>
      <path d="M860.125,275.015c-.389,0-.769-.064-1.14-.193-2.175-.755-3.944-3.791-4.854-8.328-.155-.78-.298-1.582-.436-2.358-.964-5.422-1.96-11.028-8.339-15.707-2.986-2.191-4.543-5.276-4.386-8.687.182-3.907,2.581-7.8,6.114-9.92,5.821-3.494,5.41-13.636,4.595-20.961-.663-5.955,2.872-9.626,5.99-12.866.392-.407.78-.81,1.156-1.213l.06-.064.082.032c2.04.793,4.557,2.789,6.731,5.339,2.098,2.46,3.4,4.876,3.4,6.307,0,2.529,1.027,4.581,3.14,6.273l.121.097c1.806,1.445,3.364,2.692,2.991,4.687-.339,1.797.23,2.998,2.03,4.284,2.141,1.527,2.936,3.244,2.503,5.403-.508,2.553-.053,4.111.846,5.798.205.385.439.752.688,1.142.925,1.451,1.881,2.952,1.286,5.325-.765,3.047-.306,7.042.603,8.86.917,1.839.19,3.224-1.259,5.982-.146.278-.299.57-.459.878-1.673,3.226-2.663,4.564-6.449,5.826-3.653,1.219-3.831,3.43-3.831,7.232,0,1.808-.553,3.2-1.643,4.139-1.32,1.137-3.413,1.533-6.048,1.148-1.222,1.027-2.392,1.543-3.493,1.543ZM858.955,195.024c-.357.382-.726.765-1.098,1.151-3.229,3.355-6.569,6.824-5.92,12.658.372,3.342.737,7.689.246,11.677-.578,4.697-2.249,7.906-4.966,9.536-3.46,2.076-5.811,5.887-5.987,9.709-.153,3.321,1.366,6.328,4.28,8.465,6.462,4.741,7.468,10.399,8.44,15.872.138.774.28,1.576.436,2.353.891,4.444,2.599,7.409,4.685,8.133,1.341.466,2.829.015,4.424-1.341l.045-.038.059.009c2.59.39,4.628.014,5.898-1.08,1.029-.887,1.552-2.213,1.552-3.942,0-3.808.193-6.207,4.009-7.479,3.712-1.236,4.629-2.475,6.301-5.699.16-.308.313-.601.46-.879,1.407-2.68,2.113-4.025,1.256-5.745-1.043-2.088-1.328-6.228-.622-9.04.567-2.264-.358-3.717-1.254-5.122-.239-.376-.487-.765-.697-1.159-.926-1.738-1.395-3.343-.872-5.972.411-2.047-.351-3.68-2.397-5.141-1.873-1.338-2.492-2.655-2.136-4.544.345-1.841-1.157-3.043-2.897-4.436l-.121-.097c-2.179-1.745-3.237-3.863-3.237-6.477,0-2.843-5.499-9.609-9.885-11.372Z"/>
    </g>
    <g>
      <path d="M860.267,274.928c8.212-2.084,7.479-15.57,6.254-21.21-1.23-5.64-4.38-13.717-1.963-20.106,3.434-9.072-4.17-17.654-2.208-21.087,1.963-3.433,1.717-5.272,1.47-6.375-.24-1.103-2.082-1.961-2.203.368-.125,2.33-.738,3.187-2.208,4.658s-1.104,4.66,0,8.215,3.433,8.95-.246,16.06c-3.675,7.11-2.162,10.28-.733,13.609,2.204,5.149,7.478,23.048,1.837,25.868Z" fill="#ff9ee1"/>
      <path d="M860.299,275.054l-.091-.242c5.624-2.812.092-21.053-1.897-25.701l-.093-.216c-1.374-3.192-2.794-6.493.83-13.503,3.333-6.443,1.724-11.383.549-14.99-.11-.338-.216-.662-.312-.972-1.308-4.208-1.297-7.016.032-8.346,1.445-1.446,2.046-2.265,2.17-4.573.071-1.374.728-1.575,1.006-1.598.601-.045,1.306.526,1.454,1.208.309,1.375.373,3.22-1.484,6.467-.773,1.352.006,3.565.992,6.367,1.457,4.141,3.271,9.294,1.224,14.701-1.919,5.075-.267,11.349,1.062,16.391.341,1.292.662,2.513.908,3.642.647,2.981,1.096,7.696.413,11.987-.832,5.223-3.17,8.465-6.763,9.377ZM862.57,205.17c-.019,0-.037,0-.056.002-.452.037-.725.517-.768,1.352-.128,2.388-.783,3.279-2.246,4.743-1.255,1.256-1.244,3.977.032,8.085.096.309.201.632.311.968,1.122,3.445,2.818,8.65-.565,15.19-3.566,6.901-2.233,10-.822,13.282l.093.216c1.996,4.663,7.136,21.432,2.524,25.528,3.771-1.442,5.201-5.572,5.731-8.901.678-4.26.202-9.068-.41-11.891-.245-1.123-.566-2.341-.905-3.631-1.338-5.077-3.002-11.396-1.054-16.548,2.014-5.318.218-10.422-1.226-14.523-1.009-2.864-1.805-5.127-.974-6.582,1.813-3.17,1.755-4.955,1.457-6.282-.116-.536-.651-1.008-1.123-1.008Z"/>
    </g>
    <g>
      <path d="M823.49,198.059c.92,0,2.7-.368,2.7.858M821.652,203.943c1.104-.797,3.066.123,5.025-1.042M823.615,208.847c1.47,0,3.433-.061,5.27-1.533M825.452,212.893c1.35,0,3.862-.858,4.475-2.636M825.823,215.713c2.633-.123,6.129.858,6.616-.061M825.944,224.417c1.837-1.716,6.191-2.881,7.17-4.659M830.602,197.078c3.062.981,1.796,2.876,3.308,4.046,2.7,2.084.246,4.414,2.454,5.027,2.204.612,2.167.985,1.592,3.432-.675,2.882,2.083,3.004,1.104,4.904M847.397,212.648c-1.225,0-4.841.123-6.375,3.371M821.223,248.018c1.412.245,2.117-.558,2.512-1.348.43-.859.613-1.472,1.9-1.533,1.288-.062,3.25-.43,3.68-1.41.428-.98,1.962-.061,3.249-2.636,1.287-2.574,2.146-5.64,5.575-6.743" fill="#ff9e3d"/>
      <path d="M821.717,248.193c-.165,0-.338-.016-.517-.047l.045-.256c1.079.185,1.851-.233,2.374-1.278l.104-.211c.364-.745.65-1.333,1.906-1.393,1.517-.073,3.207-.513,3.567-1.333.188-.432.56-.541.988-.667.667-.196,1.496-.439,2.264-1.975.203-.407.4-.834.591-1.249,1.042-2.269,2.121-4.614,5.06-5.56l.08.247c-2.83.911-3.885,3.204-4.904,5.421-.19.416-.389.846-.594,1.256-.818,1.637-1.745,1.909-2.423,2.108-.396.117-.684.201-.823.522-.558,1.269-3.258,1.462-3.794,1.488-1.101.052-1.32.502-1.684,1.247l-.105.214c-.487.974-1.204,1.465-2.135,1.465ZM826.033,224.512l-.178-.19c.822-.768,2.142-1.428,3.417-2.066,1.573-.787,3.199-1.6,3.728-2.56l.229.125c-.568,1.031-2.157,1.826-3.84,2.668-1.259.63-2.561,1.281-3.355,2.024ZM831.138,216.179c-.58,0-1.296-.074-2.085-.156-1.036-.107-2.21-.228-3.224-.181l-.012-.26c1.037-.045,2.219.074,3.262.182,1.536.16,2.989.31,3.245-.174l.23.122c-.188.353-.698.466-1.417.466ZM841.139,216.075l-.234-.111c1.064-2.254,3.31-3.445,6.492-3.445v.26c-3.075,0-5.239,1.14-6.258,3.297ZM839.175,214.546l-.23-.119c.431-.836.098-1.268-.364-1.865-.497-.645-1.116-1.446-.751-3.009.56-2.379.632-2.685-1.5-3.277-1.144-.317-1.141-1.11-1.138-1.949.003-.958.007-2.044-1.36-3.1-.63-.487-.805-1.098-.974-1.688-.261-.907-.506-1.764-2.296-2.337l.08-.248c1.922.616,2.21,1.624,2.466,2.514.164.575.32,1.119.882,1.553,1.47,1.134,1.466,2.339,1.462,3.307-.003.863-.005,1.433.948,1.697,2.299.639,2.263,1.123,1.684,3.587-.338,1.442.215,2.158.703,2.791.461.596.896,1.16.389,2.143ZM825.452,213.023v-.26c1.42,0,3.787-.908,4.352-2.549l.246.085c-.663,1.925-3.321,2.724-4.598,2.724ZM823.615,208.977v-.26c1.238,0,3.311,0,5.188-1.505l.162.203c-1.948,1.562-4.078,1.562-5.351,1.562ZM821.729,204.048l-.152-.211c.533-.385,1.224-.394,2.023-.404.923-.012,1.97-.025,3.011-.645l.133.224c-1.102.655-2.185.668-3.141.681-.755.01-1.407.018-1.874.355ZM826.32,198.917h-.26c0-.219-.062-.384-.19-.505-.356-.335-1.17-.286-1.823-.247-.202.012-.393.023-.557.023v-.26c.159,0,.344-.011.541-.023.706-.041,1.58-.094,2.017.317.181.17.272.404.272.694Z"/>
    </g>
  </g>
  <g>
    <g>
      <g>
        <path d="M918.475,301.589c1.387,2.016-.05,4.195,2.304,5.067,2.758,1.02.35,4.648,3.604,5.927,2.883,1.134.02,4.602,3.137,6.16,2.788,1.394-.466,4.649,3.254,6.508,3.717,1.86-.7,6.044,2.092,7.67,2.787,1.628-.93,5.812,2.325,7.44,3.254,1.626-1.396,4.88,1.625,7.205,3.02,2.324-.696,5.81,2.324,7.903,3.021,2.092-1.854,4.885,1.163,7.903,2.325,2.324-.838,4.6.929,8.136,1.162,2.324-1.163,11.622-7.67,10.692-2.325,3.952-11.387,7.438-14.641,6.276-3.254,2.324-13.712,5.578-19.062.465-5.34,5.113-15.803,1.86-19.057-.465-3.254,1.162-12.316-2.324-14.64-6.276-6.508.93-8.833-8.368-7.67-10.692,1.766-3.535-1.397-5.812.928-8.136,3.017-3.018-1.858-5.811,1.163-7.903,3.02-2.092-.696-5.579,2.324-7.903,3.021-2.325-1.629-5.58,1.625-7.206,3.254-1.627-.462-5.811,2.325-7.438,2.792-1.627-1.625-5.811,2.092-7.67,3.72-1.86.466-5.115,3.254-6.51,3.116-1.557.254-5.025,3.137-6.16,3.254-1.278.846-4.905,3.604-5.926,2.392-.886.867-3.12,2.375-5.163,6.92,2.722,28.344,4.676,37.156.096h0Z" fill="#00a728"/>
        <path d="M892.029,391.793c-4.606,0-9.305-1.812-11.248-3.173-3.343,1.109-12.254-2.287-14.687-6.279-2.951.382-4.835-1.302-5.908-2.79-1.917-2.661-2.558-6.607-1.811-8.102.838-1.677.534-3.085.267-4.326-.288-1.337-.56-2.599.686-3.843,1.481-1.482.993-2.888.521-4.246-.464-1.333-.901-2.592.659-3.672,1.442-.999,1.28-2.327,1.108-3.733-.178-1.453-.361-2.956,1.211-4.166,1.437-1.105,1.053-2.434.682-3.718-.375-1.297-.763-2.638.964-3.501,1.604-.802,1.432-2.231,1.248-3.746-.17-1.406-.347-2.861,1.07-3.688,1.221-.712.979-1.916.697-3.31-.314-1.56-.671-3.327,1.401-4.364,1.922-.961,1.912-2.29,1.903-3.575-.007-1.106-.015-2.251,1.351-2.935,1.519-.759,1.553-1.996,1.587-3.193.032-1.172.066-2.384,1.561-2.972,1.621-.637,1.775-1.889,1.925-3.1.141-1.136.285-2.31,1.683-2.827,1.287-.477,1.37-1.341,1.475-2.436.08-.832.171-1.775.841-2.683l.06-.08.093.036c7.163,2.817,28.375,4.607,37.048.102l.102-.053.065.095c.603.875.689,1.781.766,2.581.105,1.095.188,1.961,1.477,2.438,1.397.517,1.542,1.691,1.682,2.827.149,1.211.304,2.464,1.925,3.101,1.494.588,1.528,1.799,1.561,2.971.034,1.197.068,2.436,1.587,3.194,1.365.683,1.357,1.827,1.351,2.934-.009,1.285-.019,2.613,1.904,3.574,2.072,1.038,1.716,2.806,1.401,4.365-.281,1.394-.523,2.598.697,3.309,1.417.827,1.24,2.282,1.069,3.689-.184,1.514-.356,2.944,1.249,3.747,1.727.863,1.339,2.204.964,3.501-.372,1.283-.756,2.611.682,3.717,1.572,1.21,1.388,2.713,1.21,4.166-.172,1.406-.334,2.733,1.108,3.733,1.562,1.08,1.123,2.339.66,3.672-.473,1.358-.961,2.764.521,4.246,1.245,1.244.974,2.506.686,3.841-.268,1.242-.57,2.65.269,4.328.747,1.495.105,5.442-1.812,8.104-1.073,1.487-2.965,3.169-5.906,2.788-2.434,3.992-11.343,7.389-14.688,6.279-3.155,2.207-13.582,5.612-19.082.5-2.111,1.966-4.953,2.673-7.83,2.673ZM880.822,388.33l.055.04c3.06,2.186,13.499,5.641,18.893.478l.09-.086.09.086c5.398,5.158,15.839,1.706,18.896-.478l.055-.04.064.023c1.503.533,4.478.058,7.575-1.218,3.279-1.351,5.862-3.22,6.91-5.002l.045-.074.086.012c2.855.409,4.703-1.227,5.744-2.671,1.357-1.883,2.707-6.002,1.791-7.834-.88-1.761-.566-3.216-.29-4.5.284-1.319.529-2.458-.615-3.603-1.597-1.598-1.058-3.147-.582-4.515.448-1.291.836-2.405-.563-3.374-1.571-1.089-1.392-2.558-1.218-3.978.177-1.445.344-2.81-1.11-3.928-1.578-1.215-1.15-2.692-.773-3.996s.703-2.43-.831-3.196c-1.769-.885-1.576-2.474-1.39-4.011.168-1.385.326-2.692-.942-3.434-1.382-.805-1.097-2.218-.821-3.585.311-1.54.632-3.133-1.264-4.081-2.066-1.033-2.057-2.507-2.048-3.809.008-1.121.015-2.089-1.207-2.699-1.656-.829-1.695-2.205-1.729-3.419-.033-1.187-.062-2.212-1.396-2.736-1.765-.694-1.936-2.084-2.087-3.312-.143-1.155-.266-2.152-1.514-2.614-1.441-.534-1.54-1.565-1.646-2.657-.074-.774-.151-1.574-.658-2.363-8.756,4.45-29.802,2.693-37.064-.106-.574.823-.655,1.661-.733,2.473-.104,1.09-.203,2.12-1.644,2.654-1.248.462-1.372,1.46-1.514,2.615-.151,1.226-.323,2.616-2.088,3.31-1.335.525-1.363,1.55-1.396,2.736-.034,1.215-.073,2.591-1.729,3.419-1.222.611-1.215,1.579-1.207,2.701.009,1.301.019,2.775-2.047,3.809-1.896.948-1.574,2.54-1.264,4.08.275,1.367.561,2.78-.821,3.586-1.269.741-1.11,2.049-.943,3.433.187,1.537.379,3.126-1.389,4.01-1.534.767-1.208,1.893-.831,3.196.377,1.305.804,2.782-.773,3.996-1.454,1.119-1.288,2.484-1.111,3.929.174,1.421.354,2.89-1.218,3.978-1.398.969-1.011,2.083-.562,3.373.476,1.368,1.015,2.918-.583,4.516-1.145,1.145-.899,2.284-.615,3.604.277,1.284.591,2.739-.288,4.498-.916,1.832.433,5.95,1.789,7.833,1.041,1.445,2.885,3.085,5.746,2.673l.087-.012.044.075c1.048,1.781,3.63,3.65,6.908,5.001,3.098,1.275,6.069,1.751,7.575,1.218l.064-.023Z"/>
      </g>
      <g>
        <path d="M887.544,302.239c-2.558,2.557.467,4.416-2.092,7.438-2.558,3.022-.233,4.649-2.324,7.438-2.092,2.79.929,4.185-1.396,7.206-2.32,3.022.467,4.881-2.092,7.438-2.554,2.557.467,4.882-2.091,7.671-2.554,2.79.466,4.649-2.092,7.205-2.554,2.558.467,5.347-2.091,7.903-2.554,2.558.466,5.811-2.325,8.834-2.787,3.021.466,5.345-1.858,7.67-2.325,2.324-.234,4.649-1.859,6.276-1.629,1.627-1.858,3.894-1.162,4.881M892.423,303.169c-2.32,3.022,1.162,4.416-.93,6.973-2.09,2.557.93,3.487-.695,6.509s1.163,3.719-.929,6.74c-2.092,3.022,1.162,5.347-1.162,8.369-2.325,3.021,1.162,4.648-.93,7.67-2.091,3.022.93,4.649-.929,6.974-1.862,2.324,1.392,4.648-.929,7.438-2.325,2.79.93,4.881-.933,7.438-1.858,2.557.7,5.346-.93,7.438-1.624,2.092,1.163,5.114-1.162,7.903-2.324,2.79.467,4.649-.929,6.509-1.395,1.859-2.495,4.59-1.162,5.346M899.86,305.958c-1.158,4.86,1.63,9.18,0,13.23-1.625,4.05,1.162,5.67.233,8.91s1.163,5.67-.233,9.18c-1.392,3.51,1.862,6.21,0,10.8-1.858,4.59,1.2,5.733,0,10.26-1.392,5.266,2.325,8.055,0,11.774-2.32,3.72,2.096,4.65.233,8.833-1.858,4.184,1.163,5.811-.233,9.995M912.18,302.239c2.558,2.557-.467,4.416,2.092,7.438,2.558,3.022.233,4.649,2.324,7.438,2.092,2.79-.929,4.185,1.396,7.206,2.32,3.022-.467,4.881,2.092,7.438,2.554,2.557-.467,4.882,2.091,7.671,2.554,2.79-.466,4.649,2.092,7.205,2.554,2.558-.467,5.347,2.091,7.903,2.554,2.558-.466,5.811,2.325,8.834,2.787,3.021-.466,5.345,1.858,7.67,2.325,2.324.234,4.649,1.859,6.276,1.629,1.627,1.862,3.894,1.162,4.881M907.301,303.169c2.32,3.022-1.162,4.416.93,6.973,2.09,2.557-.93,3.487.695,6.509,1.629,3.022-1.163,3.719.929,6.74,2.092,3.022-1.162,5.347,1.162,8.369,2.325,3.021-1.162,4.648.93,7.67,2.091,3.022-.93,4.649.929,6.974,1.862,2.324-1.392,4.648.933,7.438,2.32,2.79-.933,4.881.929,7.438,1.858,2.557-.7,5.346.93,7.438,1.624,2.092-1.163,5.114,1.162,7.903,2.324,2.79-.467,4.649.929,6.509,1.395,1.859,2.5,4.59,1.162,5.346" fill="#00a728"/>
        <path d="M899.983,388.981l-.246-.082c.655-1.965.314-3.373-.015-4.735-.361-1.498-.736-3.048.251-5.271.894-2.006.308-3.237-.26-4.428-.606-1.271-1.179-2.474.036-4.421,1.185-1.896.761-3.543.271-5.451-.45-1.753-.961-3.739-.287-6.288.555-2.091.184-3.457-.176-4.777-.422-1.554-.821-3.021.182-5.498.979-2.417.524-4.279.083-6.079-.384-1.568-.746-3.05-.084-4.72.737-1.854.479-3.427.231-4.949-.217-1.323-.44-2.692-.003-4.22.407-1.42.082-2.52-.262-3.684-.432-1.459-.877-2.968.033-5.238.835-2.074.491-4.229.127-6.511-.341-2.136-.693-4.345-.132-6.701l.252.061c-.549,2.306-.2,4.488.137,6.6.37,2.318.72,4.508-.142,6.649-.878,2.186-.444,3.65-.026,5.066.355,1.201.69,2.336.263,3.83-.422,1.471-.212,2.751.009,4.105.255,1.557.518,3.167-.245,5.087-.632,1.593-.279,3.035.095,4.562.43,1.755.917,3.744-.096,6.239-.97,2.395-.581,3.822-.171,5.333.368,1.354.748,2.753.177,4.911-.657,2.483-.155,4.436.287,6.157.505,1.966.94,3.663-.303,5.653-1.14,1.826-.622,2.913-.022,4.172.565,1.186,1.205,2.529.264,4.645-.952,2.144-.604,3.582-.236,5.105.338,1.397.688,2.842.008,4.878ZM918.984,388.589l-.127-.227c.263-.148.431-.393.5-.726.243-1.16-.712-3.109-1.702-4.429-.65-.867-.444-1.728-.227-2.64.276-1.155.562-2.351-.698-3.864-1.301-1.561-1.045-3.212-.819-4.669.187-1.196.361-2.326-.346-3.237-.82-1.054-.63-2.246-.427-3.508.209-1.305.425-2.653-.506-3.934-.923-1.268-.634-2.438-.355-3.571.311-1.261.604-2.45-.568-3.86-1.266-1.52-.923-2.944-.62-4.201.271-1.125.527-2.188-.314-3.238-.934-1.168-.69-2.162-.433-3.215.271-1.104.551-2.246-.501-3.767-1.061-1.532-.732-2.724-.415-3.877.325-1.183.633-2.3-.512-3.788-1.222-1.589-.944-3.003-.676-4.371.259-1.32.503-2.568-.489-4.003-1.127-1.626-.873-2.629-.627-3.599.218-.862.443-1.754-.311-3.153-.815-1.516-.492-2.542-.208-3.448.3-.954.559-1.779-.473-3.041-1.059-1.293-.74-2.332-.433-3.337.321-1.05.654-2.135-.501-3.639l.207-.158c1.235,1.61.867,2.812.542,3.873-.301.982-.585,1.91.386,3.097,1.12,1.37.828,2.3.52,3.283-.282.898-.574,1.828.188,3.247.803,1.488.564,2.43.334,3.34-.242.956-.471,1.858.588,3.387,1.056,1.525.789,2.886.531,4.201-.27,1.372-.523,2.668.627,4.163,1.224,1.591.885,2.823.557,4.016-.315,1.146-.614,2.228.377,3.659,1.119,1.617.812,2.871.541,3.978-.253,1.031-.472,1.922.383,2.99.922,1.149.639,2.324.364,3.461-.303,1.257-.615,2.556.566,3.975,1.257,1.511.935,2.821.622,4.088-.277,1.125-.539,2.188.313,3.357.993,1.367.769,2.771.551,4.127-.192,1.205-.375,2.343.376,3.307.776,1,.593,2.184.398,3.438-.229,1.471-.465,2.992.761,4.463,1.345,1.613,1.029,2.93.752,4.091-.212.888-.396,1.654.181,2.423,1.06,1.411,2.011,3.393,1.75,4.639-.086.409-.297.712-.628.898ZM880.738,388.589c-.329-.187-.539-.489-.625-.898-.26-1.248.69-3.229,1.748-4.639.577-.769.394-1.536.182-2.424-.278-1.161-.593-2.477.751-4.09,1.226-1.471.989-2.992.761-4.463-.194-1.254-.378-2.438.398-3.438.751-.964.568-2.102.376-3.307-.218-1.356-.442-2.76.552-4.127.852-1.17.59-2.231.313-3.355-.312-1.268-.635-2.578.625-4.09,1.18-1.419.866-2.718.563-3.974-.274-1.137-.558-2.312.363-3.462.854-1.068.636-1.959.383-2.99-.271-1.106-.578-2.36.542-3.978.991-1.432.692-2.514.377-3.659-.328-1.192-.668-2.425.556-4.016,1.15-1.496.896-2.791.628-4.163-.258-1.315-.524-2.676.531-4.201,1.059-1.528.83-2.432.589-3.388-.23-.91-.469-1.851.332-3.339.763-1.419.471-2.349.189-3.247-.309-.983-.601-1.913.52-3.283.97-1.186.686-2.114.385-3.097-.325-1.061-.693-2.263.542-3.873l.207.158c-1.155,1.504-.822,2.589-.501,3.639.309,1.005.627,2.044-.432,3.337-1.031,1.262-.772,2.087-.473,3.041.284.906.605,1.933-.209,3.448-.752,1.399-.526,2.29-.309,3.152.245.97.499,1.974-.628,3.6-.992,1.435-.748,2.682-.489,4.003.269,1.368.546,2.782-.676,4.371-1.146,1.488-.838,2.605-.512,3.788.317,1.153.646,2.345-.415,3.877-1.053,1.521-.772,2.663-.502,3.767.258,1.053.501,2.047-.433,3.215-.842,1.051-.585,2.113-.313,3.238.304,1.258.647,2.683-.617,4.201-1.176,1.411-.882,2.602-.572,3.861.279,1.133.567,2.304-.354,3.57-.931,1.28-.715,2.629-.506,3.934.202,1.263.393,2.455-.428,3.508-.707.911-.532,2.041-.346,3.237.226,1.457.481,3.108-.819,4.669-1.26,1.514-.974,2.708-.698,3.863.219.912.425,1.773-.227,2.641-.988,1.318-1.942,3.268-1.7,4.43.069.333.237.576.499.725l-.129.227ZM933.668,382.274l-.213-.15c.918-1.294-.049-3.617-1.146-4.714-.78-.78-.748-1.707-.715-2.688.04-1.161.082-2.362-1.145-3.589-1.152-1.152-.99-2.295-.817-3.505.184-1.294.374-2.632-1.045-4.169-1.465-1.587-1.371-3.217-1.279-4.792.085-1.456.164-2.83-1.042-4.038-1.322-1.321-1.201-2.711-1.084-4.055s.228-2.612-1.007-3.849c-1.32-1.319-1.201-2.485-1.086-3.613.113-1.103.229-2.241-1.01-3.596-1.32-1.44-1.198-2.757-1.08-4.03.115-1.236.224-2.404-1.007-3.637-1.347-1.345-1.26-2.495-1.168-3.713.084-1.129.172-2.295-.936-3.737-1.227-1.595-1.007-2.754-.795-3.874.197-1.038.383-2.02-.603-3.333-1.019-1.359-1.016-2.468-1.013-3.539.004-1.205.007-2.343-1.307-3.894-1.319-1.559-1.195-2.802-1.074-4.004.113-1.13.221-2.196-1.01-3.426l.184-.184c1.317,1.316,1.199,2.495,1.085,3.635-.115,1.148-.234,2.336,1.015,3.811,1.374,1.624,1.371,2.863,1.367,4.062-.003,1.076-.005,2.093.962,3.382,1.054,1.406.848,2.489.649,3.537-.211,1.113-.411,2.165.745,3.668,1.168,1.521,1.077,2.737.988,3.915-.087,1.156-.169,2.249,1.093,3.51,1.317,1.319,1.198,2.603,1.082,3.844-.113,1.218-.229,2.476,1.013,3.831,1.318,1.44,1.196,2.639,1.077,3.798-.114,1.116-.222,2.171,1.011,3.403,1.32,1.321,1.199,2.711,1.082,4.055s-.228,2.613,1.009,3.849c1.289,1.29,1.206,2.722,1.118,4.236-.089,1.521-.18,3.095,1.211,4.602,1.502,1.628,1.294,3.091,1.11,4.381-.17,1.193-.316,2.224.744,3.285,1.307,1.306,1.261,2.621,1.222,3.782-.033.962-.062,1.793.638,2.494,1.641,1.639,1.937,3.976,1.176,5.048ZM866.056,382.274c-.758-1.075-.461-3.412,1.177-5.048.7-.701.671-1.532.638-2.494-.039-1.161-.085-2.477,1.222-3.782,1.06-1.061.913-2.092.743-3.284-.184-1.291-.392-2.754,1.11-4.382,1.391-1.507,1.3-3.08,1.211-4.602-.087-1.516-.17-2.946,1.118-4.236,1.236-1.235,1.126-2.505,1.009-3.849-.116-1.344-.237-2.733,1.082-4.055,1.232-1.232,1.125-2.287,1.011-3.403-.119-1.159-.241-2.357,1.077-3.798,1.243-1.355,1.126-2.614,1.013-3.831-.115-1.241-.235-2.524,1.082-3.844,1.262-1.261,1.18-2.354,1.093-3.51-.088-1.178-.18-2.395.988-3.915,1.156-1.503.957-2.554.745-3.667-.198-1.048-.404-2.132.649-3.538.967-1.289.965-2.307.962-3.383-.003-1.198-.007-2.438,1.367-4.062,1.249-1.475,1.13-2.662,1.015-3.811-.114-1.14-.232-2.318,1.085-3.635l.184.184c-1.229,1.229-1.123,2.296-1.01,3.425.121,1.202.246,2.445-1.074,4.005-1.312,1.551-1.31,2.688-1.307,3.893.003,1.072.006,2.181-1.013,3.54-.985,1.314-.8,2.295-.603,3.333.213,1.121.433,2.279-.794,3.874-1.108,1.442-1.021,2.608-.936,3.737.092,1.218.178,2.368-1.169,3.713-1.23,1.232-1.122,2.4-1.007,3.636.119,1.273.241,2.591-1.08,4.031-1.239,1.354-1.123,2.493-1.01,3.596.115,1.128.234,2.294-1.086,3.613-1.233,1.236-1.123,2.505-1.006,3.849.116,1.344.237,2.733-1.085,4.055-1.206,1.208-1.126,2.582-1.042,4.037.092,1.576.187,3.206-1.279,4.793-1.419,1.538-1.229,2.875-1.044,4.169.172,1.21.335,2.353-.817,3.505-1.227,1.227-1.185,2.428-1.145,3.589.033.98.065,1.907-.715,2.688-1.096,1.095-2.062,3.417-1.147,4.714l-.213.15Z"/>
      </g>
    </g>
    <g>
      <path d="M884.115,313.745c.004,1.044-.02,2.083-.987,3.37-2.092,2.79.929,4.185-1.396,7.206-2.32,3.022.466,4.882-2.092,7.439-2.554,2.556.467,4.881-2.091,7.67-2.554,2.79.466,4.649-2.092,7.206-2.554,2.557.467,5.346-2.091,7.903-2.554,2.557.466,5.81-2.325,8.833-2.788,3.021.466,5.346-1.858,7.67-2.325,2.325-.234,4.649-1.859,6.276,2.788-2.092,2.788-5.345,4.88-6.973,2.09-1.627-.697-3.952.466-5.114,1.162-1.162.233-6.043,2.325-8.368,2.091-2.324.233-6.973,2.091-8.6,1.858-1.627.463-6.508,2.788-8.135,2.324-1.628,0-5.579,1.858-7.671,1.862-2.092,0-5.346,1.862-7.903,1.858-2.557.083-4.878,1.392-6.973.583-.93.583-7.67-.871-3.836h0ZM890.798,316.651c-1.625,3.022,1.162,3.719-.93,6.74-2.09,3.023,1.163,5.347-1.162,8.369-2.324,3.021,1.163,4.648-.929,7.67-2.091,3.022.93,4.649-.929,6.974-1.862,2.324,1.392,4.648-.929,7.438-2.325,2.79.93,4.881-.933,7.438-1.858,2.557.7,5.346-.93,7.438-1.624,2.092,1.163,5.114-1.162,7.903-2.325,2.79.467,4.65-.929,6.509,2.792-.93,1.746-4.765,2.792-5.579,1.045-.814-.35-6.16,1.275-7.554,1.629-1.395-1.046-5.697.466-7.555,2.558-3.138.35-5.23,1.858-7.67,1.513-2.441-.574-5.574.584-7.206,1.975-2.79-.875-5.304.579-7.322,2.091-2.906-.404-5.298,1.046-7.206,2.208-2.905-.234-5.811.7-7.322.929-1.51,2.437-8.02-.467-9.065ZM899.86,319.188c-1.625,4.05,1.162,5.67.233,8.91s1.163,5.67-.233,9.18c-1.392,3.51,1.862,6.21,0,10.8-1.858,4.59,1.2,5.733,0,10.26-1.392,5.266,2.325,8.055,0,11.775-2.32,3.719,2.662,4.95.233,8.832-1.162,1.86.117,6.625,1.975.93,1.863-5.695-1.391-6.392.234-8.717,1.629-2.324-.58-8.484.116-11.738.7-3.254-1.625-7.67-.116-11.157,1.512-3.487-2.325-7.206-.813-10.228,1.512-3.021-.696-6.74.696-9.181,1.396-2.44-1.046-5.695-.463-7.09.58-1.394-.583-6.547-1.862-2.576h0Z" fill="#fcc300"/>
      <path d="M881.61,383.385l.251-.333c.577-.769.394-1.535.181-2.423-.277-1.161-.593-2.478.752-4.091,1.226-1.471.989-2.992.761-4.463-.194-1.254-.378-2.438.398-3.438.751-.964.568-2.102.376-3.307-.218-1.356-.442-2.76.552-4.127.852-1.17.59-2.231.313-3.355-.312-1.268-.635-2.578.625-4.09,1.18-1.419.866-2.718.563-3.974-.274-1.137-.558-2.312.363-3.462.854-1.068.636-1.959.383-2.99-.271-1.106-.578-2.36.542-3.978.991-1.432.692-2.514.377-3.659-.329-1.192-.669-2.425.555-4.016,1.151-1.496.897-2.792.629-4.164-.258-1.314-.524-2.675.529-4.2,1.06-1.529.831-2.432.59-3.388-.229-.91-.468-1.851.333-3.339l.053-.099.105.038c.688.247,1.185.796,1.477,1.632.846,2.416-.239,6.48-.943,7.623-.346.56-.185,1.365.003,2.297.29,1.445.651,3.245-.71,5.036-.623.82-.478,1.735-.31,2.795.207,1.301.441,2.775-.734,4.408-.636.882-.406,1.854-.14,2.981.31,1.307.659,2.789-.438,4.34-.507.714-.354,1.737-.178,2.923.204,1.371.436,2.926-.402,4.275-.637,1.031-.588,2.006-.536,3.038.066,1.331.142,2.84-1.331,4.646-.715.878-.436,2.377-.165,3.826.287,1.541.558,2.996-.316,3.745-.856.734-.828,2.694-.804,4.423.021,1.467.039,2.733-.477,3.135-.348.271-.443.966-.556,1.772-.198,1.434-.445,3.218-2.275,3.827l-.396.132ZM890.858,316.814c-.688,1.341-.468,2.21-.256,3.051.245.97.499,1.974-.628,3.6-.991,1.435-.747,2.682-.488,4.002.269,1.368.546,2.783-.678,4.372-1.145,1.488-.836,2.605-.511,3.788.318,1.152.646,2.345-.414,3.877-1.053,1.521-.772,2.663-.502,3.767.258,1.053.501,2.047-.433,3.215-.842,1.051-.585,2.113-.313,3.238.304,1.258.647,2.683-.617,4.201-1.176,1.411-.882,2.602-.572,3.861.279,1.133.567,2.304-.354,3.57-.931,1.28-.715,2.629-.506,3.934.202,1.263.393,2.455-.428,3.508-.707.911-.532,2.041-.346,3.237.226,1.457.481,3.108-.819,4.669-1.261,1.514-.975,2.709-.698,3.864.188.789.369,1.54-.008,2.289,1.35-.67,1.563-2.21,1.737-3.468.119-.862.222-1.606.652-1.941.414-.322.396-1.587.377-2.926-.025-1.786-.055-3.811.894-4.624.762-.652.504-2.035.23-3.5-.281-1.508-.571-3.066.22-4.038,1.409-1.729,1.34-3.122,1.272-4.47-.054-1.073-.104-2.088.575-3.188.787-1.27.563-2.773.366-4.1-.178-1.189-.345-2.313.222-3.112,1.031-1.455.709-2.815.398-4.13-.27-1.139-.523-2.215.182-3.193,1.112-1.546.888-2.964.688-4.215-.17-1.072-.331-2.085.359-2.994,1.291-1.697.957-3.36.662-4.827-.198-.985-.369-1.837.031-2.484.664-1.078,1.726-5.096.919-7.4-.25-.714-.658-1.195-1.215-1.433ZM900.406,382.714c-.156,0-.357-.069-.537-.35-.471-.735-.511-2.489.113-3.488,1.188-1.899.562-3.109-.103-4.391-.647-1.248-1.316-2.539-.13-4.44,1.185-1.896.761-3.544.271-5.452-.45-1.753-.961-3.739-.287-6.288.555-2.091.184-3.457-.176-4.777-.422-1.554-.821-3.021.182-5.498.98-2.417.524-4.279.083-6.079-.384-1.568-.746-3.05-.084-4.72.737-1.854.479-3.427.231-4.949-.217-1.323-.44-2.692-.003-4.22.407-1.42.082-2.52-.262-3.684-.431-1.458-.877-2.966.032-5.234.314-.977.646-1.484,1.012-1.553.134-.025.34-.002.551.26.608.752.922,3.048.541,3.963-.22.525.036,1.375.333,2.359.436,1.448.979,3.25.123,4.745-.656,1.151-.484,2.615-.302,4.165.198,1.684.402,3.425-.391,5.011-.721,1.439-.183,3.054.388,4.762.598,1.792,1.215,3.645.428,5.459-.837,1.936-.47,4.18-.113,6.351.281,1.719.547,3.343.237,4.782-.295,1.38-.054,3.343.181,5.241.313,2.547.639,5.181-.317,6.544-.684.979-.467,1.622-.138,2.597.41,1.215.971,2.878-.078,6.086-.582,1.783-1.16,2.723-1.719,2.795-.021.002-.044.004-.067.004ZM900.832,317.843c-.012,0-.023.002-.034.004-.118.021-.434.2-.813,1.381l-.003.009c-.878,2.187-.444,3.651-.026,5.067.355,1.202.69,2.336.263,3.83-.422,1.471-.212,2.751.009,4.105.255,1.557.518,3.167-.245,5.087-.632,1.593-.279,3.035.095,4.562.43,1.755.917,3.744-.096,6.239-.97,2.395-.581,3.822-.171,5.333.368,1.354.748,2.753.177,4.911-.657,2.483-.155,4.436.287,6.157.505,1.966.94,3.663-.303,5.654-1.108,1.775-.502,2.945.141,4.184.668,1.289,1.358,2.622.092,4.648-.553.883-.533,2.557-.115,3.21.106.166.216.246.354.227.203-.025.758-.333,1.503-2.616,1.022-3.127.478-4.742.08-5.923-.328-.974-.588-1.742.171-2.828.898-1.282.58-3.865.272-6.363-.237-1.92-.481-3.904-.177-5.328.299-1.392.037-2.992-.24-4.686-.362-2.208-.736-4.49.132-6.496.748-1.724.146-3.528-.437-5.273-.587-1.761-1.143-3.424-.373-4.961.759-1.516.559-3.218.364-4.863-.188-1.594-.364-3.099.334-4.324.801-1.398.298-3.068-.146-4.541-.311-1.032-.579-1.924-.324-2.534.34-.817.04-3.03-.503-3.699-.092-.114-.182-.172-.267-.172ZM867.402,377.422l-.17-.195c.7-.701.671-1.532.638-2.494-.04-1.161-.085-2.476,1.221-3.782,1.061-1.061.913-2.091.744-3.284-.185-1.291-.393-2.754,1.11-4.382,1.391-1.507,1.3-3.08,1.211-4.602-.087-1.515-.17-2.945,1.118-4.235,1.236-1.236,1.126-2.506,1.009-3.85-.116-1.344-.237-2.732,1.082-4.054,1.232-1.232,1.125-2.287,1.011-3.404-.119-1.159-.241-2.357,1.077-3.798,1.243-1.355,1.126-2.614,1.013-3.831-.115-1.241-.235-2.524,1.082-3.843,1.262-1.261,1.18-2.354,1.093-3.511-.088-1.177-.18-2.394.988-3.915,1.156-1.503.957-2.554.745-3.667-.198-1.048-.404-2.132.649-3.538.97-1.29.965-2.354.962-3.292l.009-.046c.408-1.077.667-1.235.847-1.252.088-.01.218.02.329.198.495.802.359,4.314-.073,5.005-.578.924-.532,1.904-.484,2.943.06,1.284.121,2.612-.913,4.036-.906,1.245-.906,2.671-.906,4.05,0,1.431,0,2.781-.964,3.863-.846.953-.787,2.346-.73,3.692.064,1.525.13,3.103-1.15,3.999-1.185.829-1.368,2.579-1.545,4.271-.165,1.572-.321,3.058-1.231,3.854-.859.752-.885,2.233-.911,3.802-.03,1.749-.062,3.557-1.169,4.788-1.167,1.297-1.369,3.395-1.548,5.245-.135,1.394-.251,2.597-.782,3.128-.448.447-.228,1.114.028,1.886.351,1.06.749,2.262-.506,3.238-.941.732-1.457,1.82-2.002,2.973-.635,1.339-1.354,2.856-2.88,4.002ZM884.245,313.769c.004.974,0,2.076-1.014,3.425-.984,1.314-.799,2.295-.602,3.333.213,1.121.433,2.279-.794,3.874-1.108,1.442-1.021,2.609-.936,3.737.091,1.219.177,2.369-1.169,3.714-1.23,1.232-1.122,2.399-1.007,3.635.119,1.274.241,2.591-1.08,4.031-1.239,1.354-1.123,2.493-1.01,3.596.115,1.128.234,2.295-1.086,3.614-1.233,1.235-1.123,2.504-1.006,3.848.116,1.344.237,2.734-1.085,4.056-1.206,1.207-1.126,2.582-1.042,4.036.092,1.576.187,3.206-1.279,4.793-1.419,1.538-1.229,2.876-1.045,4.169.172,1.21.335,2.353-.817,3.505-1.226,1.227-1.185,2.428-1.145,3.59.023.664.046,1.303-.186,1.889,1.01-.997,1.563-2.166,2.103-3.304.56-1.181,1.088-2.296,2.077-3.066,1.11-.864.759-1.926.419-2.951-.271-.818-.526-1.591.035-2.151.465-.465.577-1.626.707-2.97.173-1.797.39-4.033,1.613-5.394,1.043-1.159,1.073-2.918,1.103-4.619.027-1.627.054-3.164.999-3.992.835-.73.985-2.166,1.145-3.686.184-1.751.373-3.561,1.655-4.458,1.163-.815,1.103-2.253,1.039-3.774-.059-1.398-.12-2.845.796-3.876.898-1.01.898-2.312.898-3.691,0-1.42,0-2.89.955-4.202.981-1.351.922-2.632.864-3.872-.05-1.08-.097-2.101.523-3.094.386-.614.509-4.021.072-4.729-.011-.019-.05-.076-.081-.076h-.002c-.037.003-.241.071-.62,1.062Z"/>
    </g>
    <g>
      <path d="M917.292,304.331c0-26.266-3.716-35.33-17.432-35.33s-17.428,9.064-17.428,35.33h34.86Z" fill="#ef072d"/>
      <path d="M917.422,304.461h-35.12v-.13c0-14.05,1.072-22.295,3.585-27.571,2.599-5.456,6.908-7.889,13.974-7.889s11.378,2.433,13.977,7.889c2.513,5.275,3.585,13.521,3.585,27.571v.13ZM882.562,304.201h34.601c-.013-26.874-4.063-35.07-17.302-35.07s-17.286,8.197-17.299,35.07Z"/>
    </g>
    <g>
      <path d="M882.432,304.331c0-26.266,3.716-35.33,17.428-35.33-6.275,0-10.108,4.88-11.153,8.134-1.046,3.254-.467,3.022.929,1.744,1.395-1.279.696,1.51-.463,3.021-1.162,1.511-2.325,5.811-.7,4.417,1.63-1.395,2.904.232,1.163,2.673-1.742,2.44-3.254,8.135-1.513,6.16,1.746-1.976,2.092,1.278,1.05,2.905-1.05,1.627-.933,3.022,0,2.325.93-.698.813,2.673-.116,3.951h-6.625,0ZM914.622,302.82c0-20.571-2.554-26.73-7.666-28.823-2.896-1.186-2.98-.93-1.596.93,1.383,1.86,1.17,4.533-.108,2.673-1.275-1.86-1.7-2.208-2.233-1.394-.534.813,1.487,4.648,2.979,8.135,1.2,2.804.425,4.184-1.384,1.394-1.808-2.789-1.808-.262-.22,2.093,2.037,3.021,1.974,12.203,1.974,16.038l8.254-1.046h0Z"/>
      <path d="M889.123,304.461h-6.821v-.13c0-14.05,1.072-22.295,3.585-27.571,2.599-5.456,6.908-7.889,13.974-7.889v.26c-6.197,0-9.991,4.811-11.029,8.043-.662,2.059-.555,2.396-.478,2.445.073.048.34-.053,1.194-.836.144-.132.584-.529.854-.281.438.4-.286,2.383-1.125,3.477-.956,1.242-1.761,4.102-1.384,4.458.071.067.256-.013.495-.219.835-.715,1.505-.627,1.854-.308.51.467.57,1.653-.501,3.155-1.513,2.119-2.572,6.056-2.191,6.358,0,0,.106.058.476-.36.703-.795,1.159-.733,1.414-.539.663.5.578,2.452-.157,3.601-.714,1.106-.848,2.07-.629,2.274.109.102.345-.052.441-.124.297-.221.494-.081.568-.009.517.509.308,3.028-.501,4.141l-.039.054ZM882.562,304.201h6.428c.716-1.056.872-3.374.491-3.749-.027-.027-.083-.078-.229.032-.429.321-.67.204-.774.105-.383-.357-.125-1.501.587-2.604.698-1.09.727-2.87.22-3.252-.324-.243-.805.212-1.062.503-.135.153-.546.621-.833.392-.663-.527.855-4.911,2.143-6.713.936-1.312.978-2.407.536-2.812-.342-.313-.92-.192-1.509.313-.371.319-.655.391-.844.21-.595-.564.483-3.67,1.355-4.805.92-1.199,1.38-2.922,1.156-3.127-.029-.031-.179-.015-.502.281-.762.699-1.227,1.043-1.511.864-.262-.168-.291-.686.37-2.743.869-2.706,3.625-6.491,8.07-7.776-10.693,1.357-14.08,10.315-14.092,34.882ZM906.238,304.014v-.48c.002-3.809.006-12.729-1.951-15.632-.944-1.399-1.35-2.882-1.124-3.338.055-.111.147-.175.259-.182.115-.008.448-.033,1.302,1.283.862,1.332,1.379,1.535,1.546,1.446.254-.135.305-1.092-.391-2.718-.355-.83-.741-1.68-1.114-2.503-1.426-3.147-2.278-5.108-1.854-5.754.143-.218.344-.469.635-.472h.006c.45,0,.942.602,1.808,1.864.38.554.575.571.629.573.046-.004.086-.044.118-.118.209-.467-.019-1.859-.851-2.978-.819-1.101-1.015-1.506-.837-1.735.205-.264.81-.121,2.586.607,5.72,2.341,7.747,9.915,7.747,28.943v.114l-.113.015-8.4,1.064ZM903.44,284.64c-.011-.002-.024-.002-.044.038-.168.338.18,1.706,1.105,3.078,2.002,2.97,1.998,11.621,1.996,15.778v.186l7.994-1.013c-.008-18.816-1.996-26.301-7.585-28.589-1.764-.722-2.219-.774-2.282-.688-.051.065.054.365.84,1.42.832,1.119,1.15,2.633.879,3.239-.092.207-.231.261-.332.27-.231.022-.538-.207-.867-.685-.76-1.109-1.265-1.751-1.593-1.751h-.003c-.13.001-.263.114-.421.355-.367.56.772,3.073,1.874,5.504.373.824.76,1.676,1.115,2.508.667,1.557.777,2.782.275,3.05-.432.23-1.098-.317-1.888-1.534-.726-1.12-1.021-1.166-1.064-1.166Z"/>
    </g>
    <g>
      <path d="M899.86,308.166c5.462,0,11.441-.973,15.457-2.533,4.767-1.85,5.02-3.476,3.371-5.552-1.162-1.462-3.72-.585-6.158.487-2.441,1.071-9.183,1.753-12.67,1.753s-10.224-.682-12.666-1.753c-2.437-1.072-4.995-1.949-6.158-.487-1.65,2.076-1.396,3.701,3.37,5.552,4.013,1.56,9.996,2.533,15.454,2.533h0Z" fill="#ef072d"/>
      <path d="M899.86,308.296h0c-5.529,0-11.469-.974-15.5-2.542-2.638-1.023-4.007-2.021-4.309-3.138-.208-.766.073-1.597.884-2.616,1.204-1.514,3.745-.679,6.312.449,2.425,1.064,9.09,1.743,12.613,1.743s10.192-.679,12.618-1.743c2.564-1.129,5.107-1.965,6.311-.449.811,1.02,1.091,1.852.884,2.616-.303,1.118-1.672,2.115-4.309,3.138-4.035,1.568-9.977,2.542-15.504,2.542ZM882.873,299.437c-.722,0-1.323.208-1.735.726-.754.949-1.021,1.707-.836,2.386.278,1.03,1.598,1.973,4.151,2.964,4.004,1.557,9.907,2.524,15.406,2.524h0c5.497,0,11.402-.968,15.41-2.524,2.553-.99,3.872-1.933,4.151-2.963.184-.679-.082-1.438-.836-2.387-1.093-1.377-3.531-.562-6.003.525-2.456,1.077-9.176,1.764-12.723,1.764s-10.263-.688-12.718-1.764c-1.542-.678-3.071-1.25-4.27-1.25Z"/>
    </g>
  </g>
  <g>
    <g>
      <path d="M952.855,273.393s3.578,6.176,6.202,10.679c2.623,4.501,4.75,5.527,6.65,4.192,1.9-1.336.287-5.005-1.236-6.746-1.522-1.742-9.892-9.912-9.892-9.912l-1.724,1.787h0Z" fill="#b95a1e"/>
      <path d="M964.133,288.956c-.183,0-.367-.02-.552-.061-1.455-.318-2.977-1.872-4.653-4.748-2.624-4.503-6.201-10.679-6.201-10.679l-.057-.097,1.906-1.976.107.105c.083.082,8.392,8.194,9.899,9.92,1.175,1.343,2.314,3.679,2.112,5.364-.084.701-.388,1.24-.902,1.602-.54.379-1.096.569-1.66.569ZM953.041,273.416c.465.803,3.714,6.41,6.145,10.581,1.632,2.801,3.091,4.308,4.459,4.607.676.148,1.322-.002,1.977-.462.443-.311.705-.78.778-1.394.192-1.599-.908-3.838-2.041-5.132-1.407-1.611-8.795-8.839-9.776-9.799l-1.541,1.598Z"/>
    </g>
    <g>
      <path d="M952.005,273.868s1.418,7.082,2.466,12.25c1.048,5.166,2.728,6.881,4.942,6.291,2.214-.59,1.855-4.617.97-6.794-.883-2.177-6.187-12.825-6.187-12.825l-2.191,1.078h0Z" fill="#b95a1e"/>
      <path d="M958.616,292.668c-.496,0-.958-.131-1.379-.392-1.285-.797-2.238-2.801-2.913-6.128-1.048-5.168-2.466-12.25-2.466-12.25l-.022-.112,2.428-1.194.066.133c.053.106,5.316,10.678,6.19,12.835.693,1.705,1.023,4.333.271,5.844-.302.607-.753.994-1.34,1.15-.287.077-.566.115-.835.115ZM952.174,273.951c.185.924,1.473,7.352,2.443,12.137.657,3.242,1.565,5.183,2.777,5.934.584.362,1.232.444,1.98.243.5-.133.888-.468,1.149-.995.688-1.381.398-3.931-.279-5.599-.817-2.016-5.502-11.447-6.116-12.682l-1.955.962Z"/>
    </g>
    <g>
      <path d="M950.499,274.091s-.008,7.238,0,12.522,1.313,7.33,3.595,7.237,2.723-4.11,2.288-6.433c-.436-2.323-3.528-13.9-3.528-13.9l-2.355.574ZM948.148,273.393s-3.578,6.176-6.202,10.679c-2.623,4.501-4.75,5.527-6.65,4.192-1.9-1.336-.287-5.005,1.236-6.746,1.522-1.742,9.892-9.912,9.892-9.912l1.724,1.787h0Z" fill="#b95a1e"/>
      <path d="M953.95,294.002c-.776,0-1.433-.252-1.953-.751-1.104-1.058-1.642-3.229-1.647-6.638-.008-5.284,0-12.522,0-12.522v-.117s2.61-.636,2.61-.636l.037.141c.031.116,3.1,11.609,3.531,13.911.343,1.829.145,4.479-.897,5.788-.414.521-.93.797-1.531.821-.05.002-.101.003-.149.003ZM950.647,274.208c0,.952-.007,7.515,0,12.405.005,3.323.514,5.424,1.555,6.422.5.48,1.117.701,1.885.666.511-.021.951-.259,1.31-.709.951-1.195,1.173-3.759.838-5.548-.403-2.153-3.134-12.419-3.488-13.748l-2.1.512ZM936.87,288.956c-.564,0-1.12-.19-1.66-.569-.515-.362-.818-.901-.902-1.602-.202-1.685.938-4.021,2.112-5.364,1.508-1.727,9.816-9.839,9.899-9.92l.107-.105,1.907,1.976-.057.097s-3.578,6.176-6.202,10.679c-1.677,2.876-3.198,4.43-4.653,4.748-.185.041-.369.061-.552.061ZM946.421,271.817c-.981.959-8.369,8.188-9.776,9.799-1.133,1.294-2.233,3.533-2.041,5.132.073.613.335,1.083.778,1.394.653.458,1.299.609,1.977.462,1.368-.299,2.827-1.807,4.459-4.607,2.431-4.171,5.681-9.778,6.146-10.581l-1.542-1.598Z"/>
    </g>
    <g>
      <path d="M948.999,273.868s-1.418,7.082-2.466,12.25c-1.048,5.166-2.728,6.881-4.942,6.291-2.214-.59-1.855-4.617-.97-6.794.883-2.177,6.187-12.825,6.187-12.825l2.191,1.078h0Z" fill="#b95a1e"/>
      <path d="M942.388,292.668c-.269,0-.547-.038-.835-.115-.587-.157-1.038-.543-1.34-1.15-.753-1.511-.423-4.139.271-5.844.874-2.157,6.138-12.729,6.19-12.835l.066-.133,2.428,1.194-.022.112s-1.418,7.082-2.466,12.25c-.675,3.327-1.628,5.331-2.913,6.128-.421.261-.883.392-1.379.392ZM946.875,272.989c-.614,1.235-5.299,10.667-6.116,12.682-.678,1.667-.968,4.218-.279,5.599.262.527.649.862,1.149.995.749.2,1.396.119,1.98-.243,1.212-.751,2.12-2.692,2.777-5.934.971-4.786,2.259-11.213,2.443-12.137l-1.955-.962Z"/>
    </g>
    <g>
      <path d="M950.504,274.091s.008,7.238,0,12.522-1.313,7.33-3.595,7.237-2.723-4.11-2.288-6.433c.436-2.323,3.528-13.9,3.528-13.9l2.355.574Z" fill="#b95a1e"/>
      <path d="M947.053,294.002c-.049,0-.1,0-.149-.003-.602-.024-1.117-.301-1.531-.821-1.042-1.31-1.24-3.959-.897-5.788.432-2.302,3.5-13.795,3.531-13.911l.037-.141,2.609.636v.117s.009,7.238,0,12.522c-.006,3.409-.544,5.58-1.646,6.638-.521.499-1.178.751-1.954.751ZM948.256,273.696c-.354,1.329-3.085,11.595-3.488,13.748-.335,1.789-.113,4.353.838,5.548.358.45.799.688,1.31.709.765.033,1.385-.187,1.885-.666,1.042-.998,1.55-3.099,1.555-6.422.008-4.89.002-11.453,0-12.405l-2.1-.512Z"/>
    </g>
    <g>
      <g>
        <path d="M954.464,218.4s5.827-6.189,16.023-12.377c10.196-6.19,17.573-10.95,18.936-9.903,0,1.238-8.74,7.427-16.023,12.378s-16.023,12.377-16.023,12.377l-2.913-2.475h0ZM955.14,223.351s5.76-3.635,16.804-8.664c10.872-4.466,26.22-3.714,26.22-2.476-1.457,1.238-14.567,1.238-23.307,4.951-8.342,3.545-16.804,8.664-16.804,8.664l-2.913-2.475h0ZM955.202,231.877s5.07-2.45,16.804-6.189c11.653-3.713,27.122-1.238,27.122,0-1.456,1.238-14.013.486-22.753,2.476-9.043,1.939-18.26,6.189-18.26,6.189l-2.913-2.476ZM955.756,240.535s5.844-4.959,18.292-6.189c12.524-1.238,22.721,6.189,22.721,7.427-1.456,1.237-13.11-5.448-21.85-4.492-9.26.954-16.25,5.73-16.25,5.73l-2.913-2.476ZM952.855,213.304s9.39-6.189,9.39-11.14-4.14-9.902-5.313-12.377c2.347,0,7.66,7.426,7.66,12.377,0,5.41-8.824,13.615-8.824,13.615l-2.913-2.475Z" fill="#b95a1e"/>
        <path d="M958.659,243.198l-3.134-2.663.134-.114c.059-.05,6.022-5.003,18.374-6.224,11.004-1.087,19.802,4.387,22.015,6.392.577.523.87.921.87,1.183v.069l-.053.045c-.646.546-2.735-.179-5.9-1.278-4.558-1.583-10.807-3.749-16.029-3.179-9.114.939-16.113,5.658-16.183,5.705l-.094.064ZM955.99,240.539l2.689,2.286c.873-.569,7.612-4.805,16.224-5.692,5.302-.577,11.575,1.603,16.159,3.194,2.628.913,4.913,1.705,5.541,1.378-.042-.116-.196-.387-.756-.894-2.187-1.981-10.869-7.396-21.785-6.316-11.223,1.109-17.117,5.31-18.072,6.044ZM958.091,234.528l-3.159-2.686.206-.1c.051-.024,5.214-2.498,16.823-6.197,10.941-3.486,25.201-1.596,27.077-.224.16.118.239.237.239.366v.069l-.053.045c-.713.606-3.674.748-7.771.944-4.618.222-10.365.498-15.046,1.563-8.925,1.913-18.139,6.136-18.23,6.179l-.087.04ZM955.476,231.914l2.664,2.265c.963-.436,9.713-4.339,18.204-6.16,4.704-1.071,10.466-1.348,15.096-1.57,3.588-.172,6.706-.322,7.507-.813-.019-.02-.046-.045-.088-.076-1.658-1.2-15.963-3.185-26.808.27-10.295,3.28-15.507,5.592-16.575,6.083ZM958.038,226.009l-3.149-2.676.172-.108c.058-.037,5.896-3.698,16.822-8.674,10.092-4.146,24.432-3.867,26.209-2.677.146.099.222.212.222.336v.069l-.053.045c-.601.51-2.914.802-6.117,1.208-5.023.635-11.904,1.505-17.228,3.767-8.237,3.5-16.701,8.603-16.786,8.654l-.092.056ZM955.393,223.37l2.675,2.273c.944-.565,8.938-5.307,16.731-8.619,5.362-2.278,12.267-3.151,17.308-3.789,2.887-.365,5.195-.657,5.871-1.074-.013-.012-.029-.025-.052-.04-1.486-.996-15.473-1.591-25.925,2.703-9.861,4.491-15.567,7.908-16.608,8.545ZM957.377,221.07l-3.129-2.658.107-.114c.059-.062,5.958-6.275,16.055-12.402,1.221-.741,2.402-1.462,3.537-2.155,8.604-5.253,14.285-8.72,15.566-7.738l.059.045v.073c0,.387,0,1.563-16.088,12.501-7.193,4.89-15.924,12.293-16.011,12.368l-.097.082ZM954.682,218.389l2.695,2.291c.979-.826,9.143-7.684,15.939-12.305,13.313-9.052,15.767-11.529,15.946-12.181-1.289-.672-7.428,3.079-15.16,7.8-1.136.693-2.316,1.414-3.538,2.156-9.312,5.651-15.037,11.37-15.883,12.239ZM955.772,215.978l-.102-.085-3.063-2.604.166-.109c.093-.062,9.322-6.201,9.322-11.016,0-3.639-2.268-7.287-3.924-9.95-.574-.924-1.07-1.722-1.375-2.363l-.101-.213h.235c1.187,0,3.084,1.727,4.835,4.399,1.862,2.843,2.975,5.881,2.975,8.127,0,5.413-8.51,13.387-8.872,13.724l-.097.09ZM953.103,213.318l2.66,2.26c.956-.912,8.68-8.433,8.68-13.415,0-4.812-4.899-11.708-7.257-12.2.301.584.74,1.291,1.239,2.093,1.675,2.693,3.97,6.382,3.97,10.107,0,4.669-7.993,10.274-9.292,11.154Z"/>
      </g>
      <g>
        <path d="M952.855,213.304s-1.174-3.713-1.174-11.14c0-8.664,5.18-14.175,7.043-16.09.485,1.915-4.695,8.664-4.695,16.09,0,5.41,1.74,13.615,1.74,13.615l-2.914-2.475ZM946.539,218.4s-5.827-6.189-16.023-12.377c-10.196-6.19-17.573-10.95-18.936-9.903,0,1.238,8.74,7.427,16.023,12.378s16.023,12.377,16.023,12.377l2.913-2.475h0ZM945.863,223.351s-5.76-3.635-16.804-8.664c-10.872-4.466-26.22-3.714-26.22-2.476,1.457,1.238,14.567,1.238,23.307,4.951,8.342,3.545,16.804,8.664,16.804,8.664l2.913-2.475h0ZM945.801,231.877s-5.07-2.45-16.804-6.189c-11.652-3.713-27.122-1.238-27.122,0,1.456,1.238,14.013.486,22.753,2.476,9.043,1.939,18.26,6.189,18.26,6.189l2.913-2.476ZM945.247,240.535s-5.844-4.959-18.292-6.189c-12.524-1.238-22.721,6.189-22.721,7.427,1.456,1.237,13.11-5.448,21.85-4.492,9.26.954,16.25,5.73,16.25,5.73l2.913-2.476ZM948.148,213.304s-9.39-6.189-9.39-11.14,4.14-9.902,5.313-12.377c-2.347,0-7.66,7.426-7.66,12.377,0,5.41,8.824,13.615,8.824,13.615l2.913-2.475Z" fill="#b95a1e"/>
        <path d="M942.344,243.198l-.094-.064c-.069-.047-7.068-4.766-16.182-5.705-5.229-.574-11.473,1.596-16.03,3.179-3.165,1.099-5.256,1.824-5.9,1.278l-.053-.045v-.069c0-.262.293-.66.87-1.184,2.213-2.004,11.007-7.474,22.015-6.392,12.352,1.221,18.315,6.174,18.374,6.224l.134.114-3.134,2.663ZM924.276,237.038c.618,0,1.228.03,1.824.096,8.61.887,15.35,5.123,16.223,5.692l2.689-2.286c-.955-.735-6.85-4.936-18.072-6.044-10.9-1.08-19.598,4.335-21.785,6.316-.56.507-.714.778-.756.894.63.33,2.915-.466,5.541-1.378,4.067-1.413,9.471-3.289,14.336-3.289ZM942.912,234.528l-.087-.04c-.092-.042-9.306-4.266-18.229-6.179-4.683-1.066-10.43-1.342-15.048-1.563-4.097-.197-7.058-.338-7.771-.945l-.053-.044v-.069c0-.129.079-.249.239-.366,1.876-1.372,16.134-3.263,27.077.224,11.61,3.699,16.772,6.172,16.823,6.197l.206.1-3.159,2.686ZM902.057,225.636c.801.491,3.919.641,7.507.813,4.63.222,10.392.499,15.098,1.57,8.489,1.82,17.239,5.724,18.202,6.16l2.664-2.265c-1.068-.491-6.28-2.803-16.575-6.083-10.843-3.455-25.148-1.471-26.808-.27-.042.03-.069.056-.088.076ZM942.965,226.009l-.092-.056c-.085-.051-8.549-5.154-16.785-8.654-5.324-2.262-12.204-3.132-17.229-3.767-3.203-.405-5.517-.698-6.117-1.208l-.053-.045v-.069c0-.125.075-.238.222-.336,1.777-1.193,16.118-1.469,26.204,2.674,10.932,4.978,16.77,8.639,16.827,8.676l.172.108-3.149,2.676ZM903.025,212.162c.676.417,2.985.709,5.871,1.074,5.042.638,11.946,1.511,17.309,3.789,7.792,3.312,15.786,8.053,16.73,8.619l2.675-2.273c-1.041-.638-6.747-4.055-16.613-8.547-10.449-4.292-24.435-3.699-25.92-2.701-.022.015-.039.028-.052.04ZM943.626,221.07l-.097-.082c-.087-.074-8.817-7.478-16.01-12.368-16.089-10.937-16.089-12.114-16.089-12.501v-.073l.059-.045c1.279-.982,6.962,2.485,15.566,7.738,1.135.693,2.316,1.414,3.537,2.155,10.097,6.127,15.996,12.34,16.055,12.402l.107.114-3.129,2.658ZM911.74,196.194c.18.651,2.633,3.13,15.947,12.181,6.796,4.621,14.96,11.479,15.938,12.305l2.695-2.291c-.846-.869-6.571-6.588-15.883-12.239-1.222-.742-2.402-1.463-3.538-2.156-7.733-4.721-13.873-8.473-15.16-7.8ZM956.005,216.175l-3.278-2.785-.013-.041c-.013-.037-1.183-3.82-1.183-11.185,0-5.912,2.384-11.36,7.086-16.194l.186-.191.065.258c.201.793-.458,2.251-1.37,4.269-1.4,3.1-3.319,7.346-3.319,11.857,0,5.333,1.718,13.502,1.735,13.584l.091.427ZM952.985,213.219l2.551,2.167c-.353-1.753-1.656-8.559-1.656-13.222,0-4.576,1.935-8.855,3.347-11.98.746-1.65,1.354-2.998,1.38-3.773-4.497,4.717-6.776,10.016-6.776,15.753,0,6.908,1.031,10.633,1.155,11.055ZM945.23,215.978l-.097-.09c-.362-.336-8.872-8.311-8.872-13.724,0-2.246,1.112-5.284,2.975-8.127,1.751-2.672,3.648-4.399,4.835-4.399h.235l-.101.213c-.305.642-.801,1.441-1.376,2.366-1.656,2.663-3.923,6.309-3.923,9.947,0,4.814,9.229,10.954,9.323,11.016l.166.109-3.166,2.689ZM943.817,189.964c-2.357.492-7.257,7.388-7.257,12.2,0,4.981,7.724,12.503,8.68,13.415l2.661-2.26c-1.299-.88-9.293-6.485-9.293-11.154,0-3.723,2.294-7.412,3.969-10.104.499-.803.939-1.511,1.24-2.096Z"/>
      </g>
      <g>
        <path d="M948.148,213.304s1.174-3.713,1.174-11.14c0-8.664-5.18-14.175-7.043-16.09-.485,1.915,4.695,8.664,4.695,16.09,0,5.41-1.74,13.615-1.74,13.615l2.914-2.475Z" fill="#b95a1e"/>
        <path d="M944.998,216.175l.091-.427c.018-.082,1.735-8.251,1.735-13.584,0-4.512-1.919-8.757-3.319-11.857-.912-2.018-1.571-3.476-1.37-4.269l.065-.258.186.191c4.702,4.833,7.086,10.282,7.086,16.194,0,7.365-1.169,11.147-1.182,11.185l-.013.041-.032.028-3.247,2.757ZM942.396,186.411c.025.776.634,2.123,1.38,3.773,1.412,3.125,3.347,7.404,3.347,11.98,0,4.663-1.304,11.469-1.656,13.222l2.552-2.167c.124-.422,1.154-4.147,1.154-11.055,0-5.737-2.279-11.036-6.776-15.753Z"/>
      </g>
    </g>
    <g>
      <path d="M981.025,302.422c-3.648-8.546-4.695-23.517-4.695-25.993,0-6.97,2.183-40.878,2.348-54.46.164-13.584-8.217-21.042-16.433-21.042-7.042,0-11.737,4.95-11.737,12.377h3.521c0-4.95,3.521-8.664,8.216-8.664,7.043,0,12.455,5.85,12.911,17.328.504,13.267-1.412,47.714-1.173,56.937.238,9.224,3.394,17.447,7.042,23.517h0ZM919.979,302.422c3.648-8.546,4.695-23.517,4.695-25.993,0-6.97-2.183-40.878-2.348-54.46-.164-13.584,8.217-21.042,16.433-21.042,7.042,0,11.737,4.95,11.737,12.377h-3.521c0-4.95-3.521-8.664-8.216-8.664-7.043,0-12.455,5.85-12.911,17.328-.504,13.267,1.412,47.714,1.173,56.937-.238,9.224-3.394,17.447-7.042,23.517h0Z" fill="#b95a1e"/>
      <path d="M980.704,302.615c-4.369-7.27-6.89-15.687-7.096-23.701-.104-3.998.189-12.512.528-22.372.437-12.675.931-27.042.645-34.561-.416-10.465-5.22-16.967-12.536-16.967-4.47,0-7.841,3.563-7.841,8.289v.375h-7.805v-.375c0-4.726-3.371-8.289-7.841-8.289-7.316,0-12.12,6.501-12.536,16.967-.286,7.519.208,21.885.645,34.561.339,9.859.632,18.374.528,22.372-.206,8.014-2.727,16.431-7.096,23.701l-.666-.341c3.738-8.757,4.665-23.986,4.665-25.845,0-3.13-.438-11.632-.944-21.477-.615-11.956-1.312-25.507-1.403-32.979-.082-6.809,2.021-12.733,5.924-16.683,3.019-3.056,6.885-4.739,10.884-4.739,6.076,0,10.48,3.606,11.743,9.269,1.263-5.663,5.667-9.269,11.743-9.269,3.999,0,7.865,1.683,10.884,4.739,3.902,3.95,6.006,9.874,5.924,16.683-.091,7.472-.788,21.023-1.403,32.979-.507,9.845-.944,18.347-.944,21.477,0,1.859.927,17.088,4.665,25.845l-.666.341ZM938.759,201.302c-3.798,0-7.474,1.604-10.351,4.516-3.76,3.806-5.787,9.541-5.707,16.147.091,7.457.787,21,1.402,32.949.507,9.855.945,18.366.945,21.516,0,1.592-.675,12.899-3.188,21.709,2.942-6.13,4.62-12.819,4.785-19.244.104-3.975-.189-12.479-.528-22.327-.437-12.688-.931-27.068-.645-34.615.434-10.911,5.524-17.688,13.286-17.688,4.778,0,8.41,3.699,8.584,8.664h2.774c-.157-6.972-4.682-11.627-11.358-11.627ZM962.245,204.265c7.762,0,12.853,6.777,13.286,17.688.286,7.547-.208,21.928-.645,34.615-.339,9.847-.632,18.352-.528,22.327.165,6.424,1.843,13.114,4.785,19.244-2.514-8.81-3.188-20.117-3.188-21.709,0-3.149.438-11.661.945-21.516.615-11.949,1.312-25.493,1.402-32.949.08-6.606-1.947-12.341-5.707-16.147-2.877-2.912-6.553-4.516-10.351-4.516-6.677,0-11.201,4.656-11.358,11.627h2.774c.174-4.965,3.806-8.664,8.584-8.664Z" fill="#fdc301"/>
    </g>
    <g>
      <g>
        <path d="M950.507,273.954c6.56-.097,7.284-2.475,7.284-2.475,0,0,1.457-4.951.728-6.19-.728-1.237-8.012-1.237-8.012-1.237v9.902Z" fill="#b95a1e"/>
        <path d="M950.357,274.105v-10.203h.149c.754,0,7.391.037,8.141,1.311.753,1.28-.653,6.103-.714,6.308-.031.103-.831,2.484-7.425,2.582l-.151.002ZM950.656,264.201v9.601c6.199-.127,6.985-2.345,6.992-2.368.399-1.357,1.313-5.1.742-6.07-.548-.932-5.63-1.153-7.734-1.164Z"/>
      </g>
      <g>
        <path d="M950.507,269.003c7.042,0,8.216-2.475,8.216-2.475,0,0,2.347-4.951,1.174-6.19-1.174-1.237-9.39-1.237-9.39-1.237v9.902Z" fill="#b95a1e"/>
        <path d="M950.507,269.152h-.149v-10.2h.149c.338,0,8.294.015,9.499,1.283,1.229,1.298-1.051,6.15-1.148,6.356-.05.104-1.296,2.56-8.351,2.56ZM950.656,259.25v9.603c6.7-.034,7.921-2.367,7.933-2.39.64-1.351,2.104-5.067,1.2-6.023-.907-.956-6.76-1.181-9.133-1.19Z"/>
      </g>
      <g>
        <path d="M950.507,264.052c5.869,0,9.39-2.475,9.39-2.475,0,0,2.347-4.951,1.174-6.19-1.174-1.237-10.564-1.237-10.564-1.237v9.902Z" fill="#b95a1e"/>
        <path d="M950.507,264.201h-.149v-10.2h.149c.386,0,9.469.015,10.673,1.284,1.229,1.298-1.05,6.15-1.147,6.356l-.017.035-.032.023c-.036.025-3.628,2.501-9.477,2.501ZM950.656,254.299v9.603c5.372-.04,8.764-2.187,9.124-2.426.649-1.381,2.079-5.041,1.183-5.987-.909-.958-7.606-1.183-10.307-1.19Z"/>
      </g>
      <g>
        <path d="M950.507,257.863c10.572-.097,10.564-3.18,10.564-3.18,0,0,2.347-4.95,1.173-6.188-1.173-1.238-11.737-.534-11.737-.534v9.902Z" fill="#b95a1e"/>
        <path d="M950.357,258.013v-10.191l.14-.009c1.088-.072,10.669-.671,11.855.58,1.196,1.262-.929,5.889-1.134,6.328-.032.378-.609,3.199-10.711,3.292h-.15ZM950.656,248.101v9.612c10.083-.121,10.266-3.001,10.266-3.031l.015-.062c.641-1.351,2.104-5.067,1.199-6.021-.908-.958-8.46-.692-11.479-.497Z"/>
      </g>
      <g>
        <path d="M950.507,252.912c10.572-.097,11.737-2.475,11.737-2.475,0,0,2.348-4.951,1.174-6.19-1.174-1.237-12.911-1.237-12.911-1.237v9.902h0Z" fill="#b95a1e"/>
        <path d="M950.357,253.062v-10.202h.149c.481,0,11.815.015,13.02,1.284,1.229,1.298-1.05,6.15-1.147,6.356-.05.102-1.328,2.463-11.871,2.56h-.15ZM950.656,243.159v9.603c10.137-.115,11.443-2.37,11.455-2.392.639-1.348,2.104-5.065,1.198-6.02-.912-.962-9.3-1.184-12.653-1.191Z"/>
      </g>
      <g>
        <path d="M950.507,246.724c10.572-.097,12.911-2.475,12.911-2.475,0,0,2.347-4.951,1.174-6.19-1.174-1.237-14.085-1.237-14.085-1.237v9.902Z" fill="#b95a1e"/>
        <path d="M950.357,246.875v-10.202h.149c1.328,0,13.01.036,14.193,1.284,1.229,1.298-1.05,6.15-1.147,6.356l-.028.041c-.098.099-2.503,2.423-13.017,2.52h-.15ZM950.656,236.971v9.603c9.781-.111,12.411-2.214,12.64-2.415.646-1.373,2.086-5.049,1.188-5.998-.914-.963-10.147-1.185-13.827-1.191Z"/>
      </g>
      <g>
        <path d="M950.507,240.535c10.572-.097,14.085-2.475,14.085-2.475,0,0,1.173-4.951,0-6.19-1.174-1.237-14.085-1.237-14.085-1.237v9.902Z" fill="#b95a1e"/>
        <path d="M950.357,240.686v-10.202h.149c1.328,0,13.01.036,14.193,1.284,1.214,1.283.085,6.122.036,6.327l-.013.057-.048.033c-.146.098-3.671,2.404-14.168,2.5h-.15ZM950.656,230.782v9.603c9.632-.109,13.351-2.146,13.804-2.418.127-.56,1.062-4.898.023-5.994-.914-.963-10.147-1.185-13.827-1.191Z"/>
      </g>
      <g>
        <path d="M950.507,234.346c10.572-.097,14.085-2.475,14.085-2.475,0,0,0-4.951-1.174-6.19-1.174-1.237-12.911-1.237-12.911-1.237v9.902h0Z" fill="#b95a1e"/>
        <path d="M950.357,234.497v-10.202h.149c.481,0,11.815.015,13.02,1.284,1.2,1.268,1.215,6.088,1.215,6.292v.079l-.065.044c-.146.098-3.671,2.404-14.168,2.5h-.15ZM950.656,224.593v9.603c9.513-.108,13.258-2.096,13.786-2.408-.007-.649-.094-4.908-1.133-6.004-.912-.962-9.3-1.184-12.653-1.191Z"/>
      </g>
      <g>
        <path d="M950.507,228.157c10.572-.097,12.911-2.475,12.911-2.475,0,0,0-4.951-1.174-6.19-1.173-1.237-11.737-1.237-11.737-1.237v9.902h0Z" fill="#b95a1e"/>
        <path d="M950.357,228.308v-10.202h.149c.434,0,10.643.015,11.846,1.284,1.2,1.268,1.215,6.088,1.215,6.292v.061l-.043.043c-.098.099-2.503,2.423-13.017,2.52h-.15ZM950.656,218.404v9.603c9.488-.108,12.247-2.09,12.612-2.392-.006-.591-.085-4.915-1.133-6.021-.91-.96-8.452-1.184-11.479-1.19Z"/>
      </g>
      <g>
        <path d="M950.507,212.631c8.224.01,11.777,7.153,11.757,7.008l-2.367,2.33c-1.258,1.237-9.39,1.237-9.29,1.23l-.1-10.568h0ZM950.496,273.954c-6.56-.097-7.284-2.475-7.284-2.475,0,0-1.457-4.951-.728-6.19.728-1.237,8.012-1.237,8.012-1.237v9.902Z" fill="#b95a1e"/>
        <path d="M950.646,274.105l-.151-.002c-6.594-.098-7.394-2.479-7.425-2.581-.061-.206-1.467-5.029-.713-6.309.749-1.274,7.386-1.311,8.14-1.311h.149v10.203ZM950.347,264.201c-2.104.01-7.186.231-7.733,1.164-.572.97.342,4.712.741,6.072.007.02.793,2.238,6.992,2.365v-9.601ZM950.617,223.348v-.014c-.052,0-.08-.003-.083-.004l-.098-.054.021-.096-.102-10.698h.15c6.828.009,10.495,4.8,11.783,6.922l.08-.078.059.413-.087.032-2.34,2.304c-1.188,1.167-7.924,1.278-9.244,1.262v.002l-.141.009ZM950.755,223.053c1.222-.004,7.963-.133,9.038-1.191l2.279-2.244s-.003-.005-.005-.008c-1.224-2.036-4.773-6.751-11.41-6.83l.098,10.272Z"/>
      </g>
      <g>
        <path d="M950.496,269.003c-7.042,0-8.216-2.475-8.216-2.475,0,0-2.347-4.951-1.174-6.19,1.174-1.237,9.39-1.237,9.39-1.237v9.902Z" fill="#b95a1e"/>
        <path d="M950.646,269.152h-.149c-7.055,0-8.301-2.456-8.351-2.56-.098-.206-2.377-5.058-1.148-6.356,1.205-1.269,9.161-1.283,9.499-1.283h.149v10.2ZM950.347,259.25c-2.373.009-8.226.234-9.133,1.19-.904.956.561,4.672,1.201,6.023.011.023,1.231,2.355,7.932,2.39v-9.603Z"/>
      </g>
      <g>
        <path d="M950.496,264.052c-5.869,0-9.39-2.475-9.39-2.475,0,0-2.347-4.951-1.174-6.19,1.174-1.237,10.564-1.237,10.564-1.237v9.902Z" fill="#b95a1e"/>
        <path d="M950.646,264.201h-.149c-5.849,0-9.44-2.477-9.477-2.501l-.032-.023-.017-.035c-.098-.206-2.376-5.059-1.147-6.356,1.204-1.269,10.287-1.284,10.673-1.284h.149v10.2ZM941.223,261.477c.36.239,3.752,2.386,9.124,2.426v-9.603c-2.7.008-9.397.232-10.307,1.19-.896.946.533,4.606,1.183,5.987Z"/>
      </g>
      <g>
        <path d="M950.496,257.863c-10.572-.097-10.564-3.18-10.564-3.18,0,0-2.347-4.95-1.173-6.188,1.173-1.238,11.737-.534,11.737-.534v9.902Z" fill="#b95a1e"/>
        <path d="M950.646,258.013h-.15c-10.102-.094-10.679-2.915-10.711-3.293-.205-.439-2.33-5.066-1.134-6.328,1.187-1.252,10.768-.653,11.855-.58l.14.009v10.191ZM944.577,247.912c-2.675,0-5.208.155-5.71.686-.905.954.559,4.67,1.199,6.021l.015.064c0,.027.183,2.908,10.266,3.029v-9.612c-1.35-.087-3.606-.188-5.77-.188Z"/>
      </g>
      <g>
        <path d="M950.496,252.912c-10.572-.097-11.737-2.475-11.737-2.475,0,0-2.348-4.951-1.174-6.19,1.174-1.237,12.911-1.237,12.911-1.237v9.902h0Z" fill="#b95a1e"/>
        <path d="M950.646,253.062h-.15c-10.543-.098-11.821-2.459-11.87-2.56-.099-.208-2.378-5.06-1.148-6.358,1.204-1.269,12.538-1.284,13.02-1.284h.149v10.202ZM950.347,243.159c-3.354.007-11.741.229-12.653,1.191-.905.955.56,4.672,1.2,6.023.01.02,1.316,2.273,11.453,2.389v-9.603Z"/>
      </g>
      <g>
        <path d="M950.496,246.724c-10.572-.097-12.911-2.475-12.911-2.475,0,0-2.347-4.951-1.174-6.19,1.174-1.237,14.085-1.237,14.085-1.237v9.902Z" fill="#b95a1e"/>
        <path d="M950.646,246.875h-.15c-10.514-.098-12.919-2.422-13.017-2.521l-.028-.041c-.098-.206-2.376-5.059-1.147-6.356,1.184-1.248,12.865-1.284,14.193-1.284h.149v10.202ZM937.707,244.159c.229.201,2.858,2.303,12.64,2.415v-9.603c-3.68.006-12.913.228-13.827,1.191-.898.949.541,4.625,1.188,5.998Z"/>
      </g>
      <g>
        <path d="M950.496,240.535c-10.572-.097-14.085-2.475-14.085-2.475,0,0-1.173-4.951,0-6.19,1.174-1.237,14.085-1.237,14.085-1.237v9.902Z" fill="#b95a1e"/>
        <path d="M950.646,240.686h-.15c-10.497-.098-14.022-2.404-14.168-2.502l-.048-.033-.013-.057c-.049-.205-1.178-5.044.036-6.327,1.184-1.248,12.865-1.284,14.193-1.284h.149v10.202ZM936.543,237.966c.453.272,4.172,2.309,13.804,2.418v-9.603c-3.68.006-12.913.228-13.827,1.191-1.038,1.096-.104,5.434.023,5.994Z"/>
      </g>
      <g>
        <path d="M950.496,234.346c-10.572-.097-14.085-2.475-14.085-2.475,0,0,0-4.951,1.174-6.19,1.174-1.237,12.911-1.237,12.911-1.237v9.902h0Z" fill="#b95a1e"/>
        <path d="M950.646,234.497h-.15c-10.497-.098-14.022-2.404-14.168-2.502l-.065-.044v-.079c0-.205.015-5.025,1.215-6.292,1.204-1.269,12.538-1.284,13.02-1.284h.149v10.202ZM936.561,231.788c.528.312,4.273,2.3,13.786,2.408v-9.603c-3.354.007-11.741.229-12.653,1.191-1.039,1.096-1.126,5.355-1.133,6.004Z"/>
      </g>
      <g>
        <path d="M950.496,228.157c-10.572-.097-12.911-2.475-12.911-2.475,0,0,0-4.951,1.174-6.19,1.173-1.237,11.737-1.237,11.737-1.237v9.902h0Z" fill="#b95a1e"/>
        <path d="M950.646,228.308h-.15c-10.514-.098-12.919-2.422-13.017-2.521l-.043-.043v-.061c0-.205.015-5.025,1.215-6.292,1.203-1.269,11.412-1.284,11.846-1.284h.149v10.202ZM937.734,225.615c.365.302,3.124,2.284,12.612,2.392v-9.603c-3.027.007-10.569.23-11.479,1.19-1.048,1.105-1.127,5.429-1.133,6.021Z"/>
      </g>
      <g>
        <path d="M950.496,212.631c-8.224.01-11.777,7.153-11.757,7.008l2.367,2.33c1.258,1.237,9.39,1.237,9.29,1.23l.1-10.568h0Z" fill="#b95a1e"/>
        <path d="M950.386,223.348l-.141-.011c-1.297.011-8.056-.093-9.244-1.261l-2.34-2.303-.086-.031.058-.416.08.078c1.288-2.123,4.955-6.914,11.783-6.922h.15s0,.15,0,.15l-.101,10.547.021.096-.098.054s-.031.003-.082.004v.014ZM938.931,219.619l2.279,2.244c1.076,1.057,7.836,1.189,9.038,1.19l.098-10.272c-6.637.079-10.187,4.794-11.41,6.83-.002.002-.003.005-.005.008Z"/>
      </g>
    </g>
  </g>
  </g>
</svg>
